<?xml version="1.0" encoding="UTF-8"?>
<svg width="966px" height="801px" viewBox="0 0 966 801" version="1.1" xmlns="http://www.w3.org/2000/svg" xmlns:xlink="http://www.w3.org/1999/xlink">
    <!-- Generator: Sketch 61.2 (89653) - https://sketch.com -->
    <title>undraw_events_2p66 (1)</title>
    <desc>Created with Sketch.</desc>
    <defs>
        <linearGradient x1="50.0008763%" y1="99.9984906%" x2="50.0008763%" y2="0%" id="linearGradient-1">
            <stop stop-color="#808080" stop-opacity="0.25" offset="0%"></stop>
            <stop stop-color="#808080" stop-opacity="0.12" offset="54%"></stop>
            <stop stop-color="#808080" stop-opacity="0.1" offset="100%"></stop>
        </linearGradient>
        <linearGradient x1="50.0174946%" y1="100.001816%" x2="50.0174946%" y2="-0.00112839836%" id="linearGradient-2">
            <stop stop-color="#808080" stop-opacity="0.25" offset="0%"></stop>
            <stop stop-color="#808080" stop-opacity="0.12" offset="54%"></stop>
            <stop stop-color="#808080" stop-opacity="0.1" offset="100%"></stop>
        </linearGradient>
    </defs>
    <g id="Page-1" stroke="none" stroke-width="1" fill="none" fill-rule="evenodd">
        <g id="undraw_events_2p66-(1)" fill-rule="nonzero">
            <path d="M901.88,442.5 C864.79,502.5 871.74,584.24 888.03,648.69 C893.48,670.27 899.76,693.05 895.1,717.2 C889.4,746.73 868.62,769.92 847.59,783.2 C809.25,807.35 765.47,806.68 733.59,781.43 C706.06,759.62 687.93,721.58 659.82,700.94 C612.82,666.39 548.28,687.33 492.24,719.62 C452.61,742.41 408.99,771.41 372.36,754.99 C346.59,743.46 330.52,710.93 323.02,675.53 C319.4,658.44 317.21,639.77 308.91,626.75 C303.97,619.01 297.18,613.83 290.14,609.58 C225.89,570.84 138.96,603.23 77,559.36 C35.15,529.74 11.36,468.56 3.54,403.14 C-4.28,337.72 2.15,267.72 10.2,198.8 C15.93,149.8 23.68,97.38 49.4,57.53 C76.61,15.38 119.5,-3.47 156.78,0.53 C194.06,4.53 226.43,28.15 254.33,57.02 C289.2,93.1 320.65,139.18 365.78,150.82 C396.52,158.75 430.09,149.57 462.78,144.38 C517.36,135.7 571.18,138.19 624.62,141.45 C675.78,144.57 727.25,148.45 774.92,166.45 C808.65,179.2 834.54,205.74 866.02,223 C886.54,234.25 909.69,235.68 928.81,250.68 C952.36,269.16 972.74,303.27 963.31,346.39 C954.32,387.41 921.56,410.66 901.88,442.5 Z" id="Path" fill="#47B75B" opacity="0.1"></path>
            <path d="M825.72,195.53 L782.03,185.68 C782.03,185.68 792.34,231.76 825.72,195.53 Z" id="Path" fill="#47B75B"></path>
            <path d="M842.91,160.14 L802.98,153.14 C802.98,153.14 828.06,191.29 842.91,160.14 Z" id="Path" fill="#47B75B"></path>
            <rect id="Rectangle" fill="url(#linearGradient-1)" x="193.07" y="33.2" width="570.61" height="662.53"></rect>
            <rect id="Rectangle" fill="#F7F7FD" x="199.72" y="40.91" width="557.32" height="647.09"></rect>
            <rect id="Rectangle" fill="#E2E2EC" x="233.38" y="113.85" width="140.89" height="11.22"></rect>
            <rect id="Rectangle" fill="#E2E2EC" x="233.38" y="141.28" width="240.63" height="11.22"></rect>
            <rect id="Rectangle" fill="#FFFFFF" x="630.36" y="103.13" width="99.99" height="86.28"></rect>
            <path d="M729.82,103.63 L729.82,188.91 L630.82,188.91 L630.82,103.63 L729.82,103.63 M730.82,102.63 L629.82,102.63 L629.82,189.91 L730.82,189.91 L730.82,102.63 Z" id="Shape" fill="#E2E2EC"></path>
            <rect id="Rectangle" fill="#FFFFFF" x="529.37" y="103.13" width="99.99" height="86.28"></rect>
            <path d="M628.82,103.63 L628.82,188.91 L529.82,188.91 L529.82,103.63 L628.82,103.63 M629.82,102.63 L528.82,102.63 L528.82,189.91 L629.82,189.91 L629.82,102.63 Z" id="Shape" fill="#E2E2EC"></path>
            <rect id="Rectangle" fill="#FFFFFF" x="630.36" y="190.41" width="99.99" height="86.28"></rect>
            <path d="M729.82,190.91 L729.82,276.19 L630.82,276.19 L630.82,190.91 L729.82,190.91 M730.82,189.91 L629.82,189.91 L629.82,277.19 L730.82,277.19 L730.82,189.91 Z" id="Shape" fill="#E2E2EC"></path>
            <rect id="Rectangle" fill="#FFFFFF" x="529.37" y="190.41" width="99.99" height="86.28"></rect>
            <path d="M628.82,190.91 L628.82,276.19 L529.82,276.19 L529.82,190.91 L628.82,190.91 M629.82,189.91 L528.82,189.91 L528.82,277.19 L629.82,277.19 L629.82,189.91 Z" id="Shape" fill="#E2E2EC"></path>
            <rect id="Rectangle" fill="#FFFFFF" x="428.38" y="190.41" width="99.99" height="86.28"></rect>
            <path d="M527.87,190.91 L527.87,276.19 L428.87,276.19 L428.87,190.91 L527.87,190.91 M528.87,189.91 L427.87,189.91 L427.87,277.19 L528.87,277.19 L528.87,189.91 Z" id="Shape" fill="#E2E2EC"></path>
            <rect id="Rectangle" fill="#FFFFFF" x="327.39" y="190.41" width="99.99" height="86.28"></rect>
            <path d="M426.88,190.91 L426.88,276.19 L327.88,276.19 L327.88,190.91 L426.88,190.91 M427.88,189.91 L326.88,189.91 L326.88,277.19 L427.88,277.19 L427.88,189.91 Z" id="Shape" fill="#E2E2EC"></path>
            <rect id="Rectangle" fill="#FFFFFF" x="226.4" y="190.41" width="99.99" height="86.28"></rect>
            <path d="M325.89,190.91 L325.89,276.19 L226.89,276.19 L226.89,190.91 L325.89,190.91 M326.89,189.91 L225.89,189.91 L225.89,277.19 L326.89,277.19 L326.89,189.91 Z" id="Shape" fill="#E2E2EC"></path>
            <rect id="Rectangle" fill="#FFFFFF" x="630.36" y="277.68" width="99.99" height="86.28"></rect>
            <path d="M729.82,278.19 L729.82,363.47 L630.82,363.47 L630.82,278.19 L729.82,278.19 M730.82,277.19 L629.82,277.19 L629.82,364.47 L730.82,364.47 L730.82,277.19 Z" id="Shape" fill="#E2E2EC"></path>
            <rect id="Rectangle" fill="#FFFFFF" x="529.37" y="277.68" width="99.99" height="86.28"></rect>
            <path d="M628.82,278.19 L628.82,363.47 L529.82,363.47 L529.82,278.19 L628.82,278.19 M629.82,277.19 L528.82,277.19 L528.82,364.47 L629.82,364.47 L629.82,277.19 Z" id="Shape" fill="#E2E2EC"></path>
            <rect id="Rectangle" fill="#FFFFFF" x="428.38" y="277.68" width="99.99" height="86.28"></rect>
            <path d="M527.87,278.19 L527.87,363.47 L428.87,363.47 L428.87,278.19 L527.87,278.19 M528.87,277.19 L427.87,277.19 L427.87,364.47 L528.87,364.47 L528.87,277.19 Z" id="Shape" fill="#E2E2EC"></path>
            <rect id="Rectangle" fill="#FFFFFF" x="327.39" y="277.68" width="99.99" height="86.28"></rect>
            <path d="M426.88,278.19 L426.88,363.47 L327.88,363.47 L327.88,278.19 L426.88,278.19 M427.88,277.19 L326.88,277.19 L326.88,364.47 L427.88,364.47 L427.88,277.19 Z" id="Shape" fill="#E2E2EC"></path>
            <rect id="Rectangle" fill="#FFFFFF" x="226.4" y="277.68" width="99.99" height="86.28"></rect>
            <path d="M325.89,278.19 L325.89,363.47 L226.89,363.47 L226.89,278.19 L325.89,278.19 M326.89,277.19 L225.89,277.19 L225.89,364.47 L326.89,364.47 L326.89,277.19 Z" id="Shape" fill="#E2E2EC"></path>
            <rect id="Rectangle" fill="#FFFFFF" x="630.36" y="364.96" width="99.99" height="86.28"></rect>
            <path d="M729.82,365.46 L729.82,450.74 L630.82,450.74 L630.82,365.46 L729.82,365.46 M730.82,364.46 L629.82,364.46 L629.82,451.74 L730.82,451.74 L730.82,364.46 Z" id="Shape" fill="#E2E2EC"></path>
            <rect id="Rectangle" fill="#FFFFFF" x="529.37" y="364.96" width="99.99" height="86.28"></rect>
            <path d="M628.82,365.46 L628.82,450.74 L529.82,450.74 L529.82,365.46 L628.82,365.46 M629.82,364.46 L528.82,364.46 L528.82,451.74 L629.82,451.74 L629.82,364.46 Z" id="Shape" fill="#E2E2EC"></path>
            <rect id="Rectangle" fill="#FFFFFF" x="428.38" y="364.96" width="99.99" height="86.28"></rect>
            <path d="M527.87,365.46 L527.87,450.74 L428.87,450.74 L428.87,365.46 L527.87,365.46 M528.87,364.46 L427.87,364.46 L427.87,451.74 L528.87,451.74 L528.87,364.46 Z" id="Shape" fill="#E2E2EC"></path>
            <rect id="Rectangle" fill="#FFFFFF" x="327.39" y="364.96" width="99.99" height="86.28"></rect>
            <path d="M426.88,365.46 L426.88,450.74 L327.88,450.74 L327.88,365.46 L426.88,365.46 M427.88,364.46 L326.88,364.46 L326.88,451.74 L427.88,451.74 L427.88,364.46 Z" id="Shape" fill="#E2E2EC"></path>
            <rect id="Rectangle" fill="#FFFFFF" x="226.4" y="364.96" width="99.99" height="86.28"></rect>
            <path d="M325.89,365.46 L325.89,450.74 L226.89,450.74 L226.89,365.46 L325.89,365.46 M326.89,364.46 L225.89,364.46 L225.89,451.74 L326.89,451.74 L326.89,364.46 Z" id="Shape" fill="#E2E2EC"></path>
            <rect id="Rectangle" fill="#FFFFFF" x="630.36" y="452.23" width="99.99" height="86.28"></rect>
            <path d="M729.82,452.74 L729.82,538.01 L630.82,538.01 L630.82,452.74 L729.82,452.74 M730.82,451.74 L629.82,451.74 L629.82,539.01 L730.82,539.01 L730.82,451.74 Z" id="Shape" fill="#E2E2EC"></path>
            <rect id="Rectangle" fill="#FFFFFF" x="529.37" y="452.23" width="99.99" height="86.28"></rect>
            <path d="M628.82,452.74 L628.82,538.01 L529.82,538.01 L529.82,452.74 L628.82,452.74 M629.82,451.74 L528.82,451.74 L528.82,539.01 L629.82,539.01 L629.82,451.74 Z" id="Shape" fill="#E2E2EC"></path>
            <rect id="Rectangle" fill="#FFFFFF" x="428.38" y="452.23" width="99.99" height="86.28"></rect>
            <path d="M527.87,452.74 L527.87,538.01 L428.87,538.01 L428.87,452.74 L527.87,452.74 M528.87,451.74 L427.87,451.74 L427.87,539.01 L528.87,539.01 L528.87,451.74 Z" id="Shape" fill="#E2E2EC"></path>
            <rect id="Rectangle" fill="#FFFFFF" x="327.39" y="452.23" width="99.99" height="86.28"></rect>
            <path d="M426.88,452.74 L426.88,538.01 L327.88,538.01 L327.88,452.74 L426.88,452.74 M427.88,451.74 L326.88,451.74 L326.88,539.01 L427.88,539.01 L427.88,451.74 Z" id="Shape" fill="#E2E2EC"></path>
            <rect id="Rectangle" fill="#FFFFFF" x="226.4" y="452.23" width="99.99" height="86.28"></rect>
            <path d="M325.89,452.74 L325.89,538.01 L226.89,538.01 L226.89,452.74 L325.89,452.74 M326.89,451.74 L225.89,451.74 L225.89,539.01 L326.89,539.01 L326.89,451.74 Z" id="Shape" fill="#E2E2EC"></path>
            <rect id="Rectangle" fill="#FFFFFF" x="630.36" y="539.51" width="99.99" height="86.28"></rect>
            <path d="M729.82,540.01 L729.82,625.29 L630.82,625.29 L630.82,540.01 L729.82,540.01 M730.82,539.01 L629.82,539.01 L629.82,626.29 L730.82,626.29 L730.82,539.01 Z" id="Shape" fill="#E2E2EC"></path>
            <rect id="Rectangle" fill="#FFFFFF" x="529.37" y="539.51" width="99.99" height="86.28"></rect>
            <path d="M628.82,540.01 L628.82,625.29 L529.82,625.29 L529.82,540.01 L628.82,540.01 M629.82,539.01 L528.82,539.01 L528.82,626.29 L629.82,626.29 L629.82,539.01 Z" id="Shape" fill="#E2E2EC"></path>
            <rect id="Rectangle" fill="#FFFFFF" x="428.38" y="539.51" width="99.99" height="86.28"></rect>
            <path d="M527.87,540.01 L527.87,625.29 L428.87,625.29 L428.87,540.01 L527.87,540.01 M528.87,539.01 L427.87,539.01 L427.87,626.29 L528.87,626.29 L528.87,539.01 Z" id="Shape" fill="#E2E2EC"></path>
            <rect id="Rectangle" fill="#FFFFFF" x="327.39" y="539.51" width="99.99" height="86.28"></rect>
            <path d="M426.88,540.01 L426.88,625.29 L327.88,625.29 L327.88,540.01 L426.88,540.01 M427.88,539.01 L326.88,539.01 L326.88,626.29 L427.88,626.29 L427.88,539.01 Z" id="Shape" fill="#E2E2EC"></path>
            <rect id="Rectangle" fill="#FFFFFF" x="226.4" y="539.51" width="99.99" height="86.28"></rect>
            <path d="M325.89,540.01 L325.89,625.29 L226.89,625.29 L226.89,540.01 L325.89,540.01 M326.89,539.01 L225.89,539.01 L225.89,626.29 L326.89,626.29 L326.89,539.01 Z" id="Shape" fill="#E2E2EC"></path>
            <circle id="Oval" fill="#47B75B" cx="745.64" cy="451.33" r="5.7"></circle>
            <circle id="Oval" fill="#47B75B" cx="748.49" cy="444.69" r="5.7"></circle>
            <circle id="Oval" fill="#47B75B" cx="751.34" cy="438.99" r="5.7"></circle>
            <path d="M740.72,465.63 C746.97,469.32 756.72,471.72 769.07,463.79 L768.95,481.35 C769.83,493.35 784.72,537.26 784.72,537.26 L795.22,573.36 C802.743614,598.863049 806.628627,625.30066 806.76,651.89 C806.76,660.7 807.58,669.78 810.11,676.61 C815.7,691.72 807.91,711.19 804.53,718.44 C798.840537,720.361793 793.056276,721.990598 787.2,723.32 C786.673211,723.441102 786.155333,723.598136 785.65,723.79 L785.58,723.69 C785.58,723.69 769.82,729.94 762.82,729.08 C757.6,728.44 754.33,734.95 758.42,739.74 C754.56,740.74 750.6,741.45 747.93,741.12 C740.93,740.26 737.42,752.3 750.56,755.74 C763.7,759.18 838.15,755.74 838.15,755.74 C842.457185,753.585099 844.760663,748.788928 843.75,744.08 C849.47,743.86 853.04,743.69 853.04,743.69 C853.04,743.69 866.18,737.69 853.04,721.32 L852.34,721.85 L849.53,713.58 L849.53,702.41 C849.53,702.41 866.17,622.41 860.92,612.95 C855.67,603.49 853.04,555.32 853.04,555.32 L854.82,502.85 C859.57,493.05 862,477.69 863.23,465.68 C865.017164,459.950323 866.144461,454.03537 866.59,448.05 C866.8,445.23 866.97,442.27 867.08,439.2 C867.124301,432.466129 866.021885,425.773858 863.82,419.41 C868.82,412.21 876.95,401.08 883.66,394.5 C894.17,384.18 891.54,372.13 891.54,372.13 L887.16,342.88 L876.65,292.99 C877.97,279.15 875.08,271.18 871.89,266.68 C872.65,262.21 873.36,257.74 873.89,253.25 C876.219594,233.724577 875.181191,213.94418 870.82,194.77 C869.3,188.08 867.23,181.22 862.54,176.15 C857.23,170.41 848.61,166.91 846.63,159.39 C846.14,157.52 846.12,155.53 845.41,153.73 C843.49,148.81 837.41,147.02 832.09,146.38 C822.61,145.23 808.9,144.38 799.79,148.08 C793.43,150.68 784.67,157.84 781.19,165.52 C779.19,169.05 778.26,172.76 779.11,176.25 C779.445248,177.535924 779.953203,178.77049 780.62,179.92 C779.262827,183.598401 778.572028,187.489224 778.58,191.41 C778.644699,205.202398 787.141437,217.550832 800,222.54 C800.21,223.2 800.4,223.85 800.56,224.49 C800.957968,226.030863 801.245365,227.598185 801.42,229.18 C801.25,232.18 801.06,235.27 800.92,238.32 C800.82,238.74 800.713333,239.153333 800.6,239.56 C793.06712,242.895114 785.722764,246.640735 778.6,250.78 C783.86,258.52 777.72,291.21 777.72,291.21 C764.58,298.95 751.44,318.74 765.46,339.38 C779.48,360.02 771.59,382.38 771.59,382.38 L769.4,416.01 L769.4,416.01 L769.4,416.07 L768.96,422.8 L769.13,422.8 L768.96,425.35 L769.34,425.42 L769.34,428.16 C763.19,430.42 754.2,434.98 748.84,443.41 C746.305412,447.556912 743.220693,451.341327 739.67,454.66 C738.014873,456.092215 737.155608,458.237151 737.364154,460.415956 C737.5727,462.594762 738.823243,464.537756 740.72,465.63 Z M846.48,376.27 C845.952756,370.451852 847.028292,364.60038 849.59,359.35 C851.65,359.39 853.713333,359.413333 855.78,359.42 C855.99,360.87 856.24,362.25 856.54,363.51 C858.32,371.09 851.21,374.72 846.47,376.26 L846.48,376.27 Z" id="Shape" fill="url(#linearGradient-2)"></path>
            <path d="M848.21,709.66 L851.58,719.77 L840.58,730.77 L804.34,739.2 L778.21,736.67 L779.9,727.4 L779.9,727.4 C780.917749,723.336868 784.121309,720.183484 788.2,719.23 C798.94,716.71 819.42,710.95 823.72,702.96 L848.21,709.66 Z" id="Path" fill="#DB8B8B"></path>
            <path d="M848.21,709.66 L851.58,719.77 L840.58,730.77 L804.34,739.2 L778.21,736.67 L779.9,727.4 L779.9,727.4 C780.917749,723.336868 784.121309,720.183484 788.2,719.23 C798.94,716.71 819.42,710.95 823.72,702.96 L848.21,709.66 Z" id="Path" fill="#000000" opacity="0.1"></path>
            <path d="M786.68,734.1 L791.74,727.36 L786.68,719.55 C786.68,719.55 771.51,725.67 764.77,724.83 C758.03,723.99 754.66,735.83 767.3,739.16 C779.94,742.49 851.58,739.16 851.58,739.16 C851.58,739.16 864.22,733.26 851.58,717.25 L840.58,725.68 C840.58,725.68 822.04,735.79 812.77,734.11 L786.68,734.1 Z" id="Path" fill="#2E3037"></path>
            <path d="M763.92,748.41 L790.05,750.94 L826.29,742.51 L837.29,731.51 L836.4,728.83 L835.14,725.07 L833.88,721.41 L809.44,714.67 C808.191357,716.707964 806.477964,718.421357 804.44,719.67 C796.5,725.1 782.24,729.02 773.87,730.98 C773.530791,731.063327 773.196863,731.166845 772.87,731.29 C769.267798,732.500246 766.531001,735.463225 765.61,739.15 L763.92,748.41 Z" id="Path" fill="#DB8B8B"></path>
            <path d="M763.92,748.41 L790.05,750.94 L826.29,742.51 L837.29,731.51 L836.4,728.83 L826.34,736.57 C826.34,736.57 807.8,746.68 798.53,745 L772.35,745 L777.41,738.26 L772.87,731.26 C769.267798,732.470246 766.531001,735.433225 765.61,739.12 L763.92,748.41 Z" id="Path" fill="#000000" opacity="0.1"></path>
            <path d="M772.35,745.9 L777.41,739.16 L772.35,731.35 C772.35,731.35 757.18,737.47 750.44,736.63 C743.7,735.79 740.33,747.63 752.97,750.96 C765.61,754.29 837.25,750.96 837.25,750.96 C837.25,750.96 849.89,745.06 837.25,729.05 L826.25,737.48 C826.25,737.48 807.71,747.59 798.44,745.91 L772.35,745.9 Z" id="Path" fill="#2E3037"></path>
            <path d="M793.42,257.07 C793.42,257.07 833.88,261.28 827.98,244.43 C826.3302,239.651591 825.90052,234.536681 826.73,229.55 C827.779504,223.367455 830.224804,217.505574 833.88,212.41 L795.95,218.31 C798.222706,222.11056 799.952792,226.210257 801.09,230.49 C805.61,248.36 793.42,257.07 793.42,257.07 Z" id="Path" fill="#DB8B8B"></path>
            <path d="M862.53,449.23 C862.53,449.23 861.69,485.47 853.26,503.17 L851.57,554.58 C851.57,554.58 854.1,601.78 859.16,611.05 C864.22,620.32 848.16,698.7 848.16,698.7 L848.16,712.19 C848.16,712.19 821.16,722.3 813.6,710.5 L821.19,610.2 L817.82,471.14 L862.53,449.23 Z" id="Path" fill="#474463"></path>
            <path d="M862.53,449.23 C862.53,449.23 861.69,485.47 853.26,503.17 L851.57,554.58 C851.57,554.58 854.1,601.78 859.16,611.05 C864.22,620.32 848.16,698.7 848.16,698.7 L848.16,712.19 C848.16,712.19 821.16,722.3 813.6,710.5 L821.19,610.2 L817.82,471.14 L862.53,449.23 Z" id="Path" fill="#4F007D" opacity="0.5"></path>
            <path d="M879.39,332.92 L884.45,346.41 L888.66,375.07 C889.814132,383.170252 886.98762,391.329525 881.07,396.98 C870.96,407.09 857.47,428.16 857.47,428.16 L841.47,380.16 C841.47,380.16 857.47,377.63 854.96,366.67 C852.45,355.71 853.26,335.41 853.26,335.41 L879.39,332.92 Z" id="Path" fill="#47B75B"></path>
            <path d="M879.39,332.92 L884.45,346.41 L888.66,375.07 C889.814132,383.170252 886.98762,391.329525 881.07,396.98 C870.96,407.09 857.47,428.16 857.47,428.16 L841.47,380.16 C841.47,380.16 857.47,377.63 854.96,366.67 C852.45,355.71 853.26,335.41 853.26,335.41 L879.39,332.92 Z" id="Path" fill="#47B75B" opacity="0.05"></path>
            <path d="M804.48,719.68 C815.29,736.68 832.12,727.05 835.1,725.13 L833.88,721.41 L809.44,714.67 C808.203936,716.707034 806.504534,718.423567 804.48,719.68 L804.48,719.68 Z" id="Path" fill="#000000" opacity="0.1"></path>
            <path d="M770.67,482.1 C771.51,493.9 785.84,536.88 785.84,536.88 L795.95,572.25 C803.194556,597.259271 806.933548,623.152887 807.06,649.19 C807.06,657.82 807.85,666.72 810.29,673.41 C817.03,691.95 803.55,717.24 803.55,717.24 C815.35,738.31 835.55,723.98 835.55,723.98 L835.55,710.5 C835.55,710.5 851.55,637.17 847.35,622.85 C843.15,608.53 841.45,569.75 841.45,569.75 L841.45,499.75 C854.950887,486.29732 863.160908,468.436176 864.58,449.43 C864.78,446.67 864.94,443.77 865.05,440.76 C865.73,421.76 852.73,399.45 847.65,391.51 C846.43,389.59 845.65,388.51 845.65,388.51 L771.23,418.03 L771.06,418.1 L771.06,420.98 L771.06,427.35 L770.67,482.1 Z" id="Path" fill="#4F007D"></path>
            <path d="M795.95,218.3 C798.222706,222.10056 799.952792,226.200257 801.09,230.48 C809.413581,233.637989 818.660006,233.299001 826.73,229.54 C827.78096,223.360946 830.226197,217.502636 833.88,212.41 L795.95,218.3 Z" id="Path" fill="#000000" opacity="0.1"></path>
            <circle id="Oval" fill="#DB8B8B" cx="812.81" cy="198.06" r="32.87"></circle>
            <path d="M770.67,427.32 L771.03,427.39 C806.37,434.66 850.74,397.82 850.74,397.82 C849.551019,395.815257 848.524408,393.718562 847.67,391.55 C846.45,389.63 845.67,388.55 845.67,388.55 L771.25,418.07 L771.06,421.02 L770.67,427.32 Z" id="Path" fill="#000000" opacity="0.1"></path>
            <path d="M779.94,256.22 C779.94,256.22 827.14,227.56 842.31,239.36 L863.38,266.36 C863.38,266.36 876.87,270.57 874.38,297.54 L884.45,346.41 L854.11,354 C854.11,354 836.41,370.86 850.74,395.3 C850.74,395.3 806.07,432.38 770.67,424.8 L773.2,385.19 C773.2,385.19 780.79,363.28 767.3,343.05 C753.81,322.82 766.46,303.44 779.1,295.85 C779.1,295.84 784.99,263.81 779.94,256.22 Z" id="Path" fill="#47B75B"></path>
            <path d="M777.41,428.16 C777.41,428.16 759.71,431.53 751.28,445.02 C748.847672,449.066356 745.880956,452.766343 742.46,456.02 C740.899683,457.435258 740.097089,459.502769 740.293837,461.600109 C740.490586,463.697449 741.663695,465.579622 743.46,466.68 C750.15,470.68 761.06,473.17 774.84,461.85 C798.48,442.49 777.41,428.16 777.41,428.16 Z" id="Path" fill="#DB8B8B"></path>
            <path d="M803.54,272.24 C803.54,272.24 820.4,270.55 824.61,314.38 C828.82,358.21 835.61,368.32 835.61,368.32 C835.61,368.32 839.82,391.08 829.71,404.56 C819.6,418.04 800.21,446.7 800.21,446.7 C800.21,446.7 779.14,452.6 774.93,431.53 L801.06,382.65 C801.06,382.65 805.27,365.79 795.16,353.99 C785.05,342.19 777.41,263.81 803.54,272.24 Z" id="Path" fill="#000000" opacity="0.1"></path>
            <path d="M801.82,269.71 C801.82,269.71 818.68,268.02 822.89,311.85 C827.1,355.68 833.89,365.79 833.89,365.79 C833.89,365.79 838.1,388.55 827.99,402.03 C817.88,415.51 798.49,444.17 798.49,444.17 C798.49,444.17 777.42,450.07 773.21,429 L799.34,380.12 C799.34,380.12 803.55,363.26 793.44,351.46 C783.33,339.66 775.72,261.28 801.82,269.71 Z" id="Path" fill="#47B75B"></path>
            <path d="M787.94,301.31 C787.94,301.31 786.26,327.41 793.82,341.77 C801.38,356.13 801.41,374.64 793.82,384.77" id="Path" fill="#000000" opacity="0.1"></path>
            <path d="M783.73,269.29 C783.73,269.29 790.47,262.55 809.86,261.7 C829.25,260.85 837.67,254.96 837.67,254.96" id="Path" fill="#000000" opacity="0.1"></path>
            <path d="M830.61,155.59 C835.73,156.22 841.61,157.98 843.43,162.79 C844.11,164.56 844.13,166.51 844.6,168.34 C846.51,175.7 854.8,179.13 859.91,184.76 C864.42,189.76 866.41,196.45 867.91,203 C872.11809,221.782814 873.132278,241.140282 870.91,260.26 C869.27,274.26 865.91,288 864.97,302.04 C864.03,316.08 865.75,330.85 873.42,342.65 C876.72,347.72 881.08,352.18 883.42,357.76 C878.59,361.68 871.92,362.24 865.69,362.45 C858.443333,362.696667 851.193333,362.696667 843.94,362.45 C840.14,362.32 836.17,362.07 832.89,360.15 C830.461333,358.596747 828.465891,356.453366 827.09,353.92 C822.94,346.92 821.9,338.42 822.09,330.26 C822.28,322.1 823.56,313.98 823.71,305.81 C823.79,301.36 823.44,296.63 820.88,292.99 C819.03,290.36 816.22,288.59 813.82,286.46 C804.82,278.46 801.7,265.64 801.4,253.59 C801.1,241.54 803.09,229.47 802.07,217.46 C801.67,212.76 799.91,207.11 795.29,206.2 C793.83,205.91 792.29,206.2 790.89,205.64 C787.18,204.21 787.54,198.98 786.48,195.15 C785.29,190.85 781.62,187.53 780.59,183.15 C778.16,172.95 791.14,160.78 799.65,157.23 C808.3,153.61 821.49,154.47 830.61,155.59 Z" id="Path" fill="#000000" opacity="0.1"></path>
            <path d="M831.45,153.91 C836.57,154.54 842.45,156.3 844.27,161.11 C844.95,162.88 844.97,164.83 845.44,166.66 C847.35,174.02 855.64,177.45 860.75,183.08 C865.26,188.08 867.25,194.77 868.75,201.32 C872.95809,220.102814 873.972278,239.460282 871.75,258.58 C870.11,272.58 866.75,286.32 865.81,300.36 C864.87,314.4 866.59,329.17 874.26,340.97 C877.56,346.04 881.92,350.5 884.26,356.08 C879.43,360 872.76,360.56 866.53,360.77 C859.283333,361.016667 852.033333,361.016667 844.78,360.77 C840.98,360.64 837.01,360.39 833.73,358.47 C831.301333,356.916747 829.305891,354.773366 827.93,352.24 C823.78,345.24 822.74,336.74 822.93,328.58 C823.12,320.42 824.4,312.3 824.55,304.13 C824.63,299.68 824.28,294.95 821.72,291.31 C819.87,288.68 817.06,286.91 814.66,284.78 C805.66,276.78 802.54,263.96 802.24,251.91 C801.94,239.86 803.93,227.79 802.91,215.78 C802.51,211.08 800.75,205.43 796.13,204.52 C794.67,204.23 793.13,204.52 791.73,203.96 C788.02,202.53 788.38,197.3 787.32,193.47 C786.13,189.17 782.46,185.85 781.43,181.47 C779,171.27 791.98,159.1 800.49,155.55 C809.14,151.92 822.33,152.78 831.45,153.91 Z" id="Path" fill="#472727"></path>
        </g>
    </g>
</svg>