<?xml version="1.0" encoding="UTF-8"?>
<svg width="1016px" height="784px" viewBox="0 0 1016 784" version="1.1" xmlns="http://www.w3.org/2000/svg" xmlns:xlink="http://www.w3.org/1999/xlink">
    <!-- Generator: Sketch 61.2 (89653) - https://sketch.com -->
    <title>undraw_online_shopping_ga73</title>
    <desc>Created with Sketch.</desc>
    <defs>
        <linearGradient x1="50%" y1="100%" x2="50%" y2="0%" id="linearGradient-1">
            <stop stop-color="#808080" stop-opacity="0.25" offset="0%"></stop>
            <stop stop-color="#808080" stop-opacity="0.12" offset="54%"></stop>
            <stop stop-color="#808080" stop-opacity="0.1" offset="100%"></stop>
        </linearGradient>
        <linearGradient x1="49.9926606%" y1="100.016254%" x2="49.9926606%" y2="-0.0618055991%" id="linearGradient-2">
            <stop stop-color="#808080" stop-opacity="0.25" offset="0%"></stop>
            <stop stop-color="#808080" stop-opacity="0.12" offset="54%"></stop>
            <stop stop-color="#808080" stop-opacity="0.1" offset="100%"></stop>
        </linearGradient>
    </defs>
    <g id="Page-1" stroke="none" stroke-width="1" fill="none" fill-rule="evenodd">
        <g id="undraw_online_shopping_ga73" transform="translate(-93.000000, -59.000000)">
            <path d="M730.08,185.32 C687.8,212.06 632.96,210.32 584.91,196.42 C536.86,182.52 492.71,157.73 445.91,140.12 C406.597808,125.34868 365.552615,115.683079 323.78,111.36 C264.11,105.19 197.48,112.7 155.9,155.93 C109.6,204.08 113.15,290.93 163.23,335.11 C188.7,357.59 222.06,368.62 251.15,386.17 C280.24,403.72 307.15,432.87 304.68,466.75 C302.39,498.11 275.73,522.18 248.14,537.28 C226.81,548.95 200.54,561.69 197.97,585.86 C195.49,609.25 217.57,627.58 238.66,638 C307.46,672 392.22,671.67 460.75,637.14 C485.2,624.82 507.68,608.44 533.32,598.84 C600.65,573.63 674.83,599.01 746.12,608.29 C806.653779,616.127821 868.135185,612.082277 927.12,596.38 C962.42,586.96 997.86,572.56 1022.66,545.73 C1040.54,526.38 1051.66,501.9 1062.15,477.73 C1073.30333,451.943333 1084.02333,425.976667 1094.31,399.83 C1100.49,384.13 1106.57,368.13 1108.16,351.33 C1111.05,320.9 1098.88,290.82 1082.29,265.13 C1042.89,204.14 976.58,161.26 904.78,150.37 C832.98,139.48 756.99,160.77 701.29,207.3" id="Path" fill="#47B75B" fill-rule="nonzero" opacity="0.1"></path>
            <ellipse id="Oval" fill="#47B75B" fill-rule="nonzero" opacity="0.1" cx="228.74" cy="815.99" rx="135.74" ry="26.54"></ellipse>
            <ellipse id="Oval" fill="#47B75B" fill-rule="nonzero" opacity="0.1" cx="631.99" cy="760.56" rx="284.54" ry="26.54"></ellipse>
            <path d="M826.84,504.19 C828.11,513.65 848.92,538.76 848.92,538.76 C848.92,538.76 862.35,509.05 861.08,499.59 C859.809745,490.134885 851.115115,483.499745 841.66,484.77 C832.204885,486.040255 825.569745,494.734885 826.84,504.19 L826.84,504.19 Z" id="Path" fill="#47B75B" fill-rule="nonzero"></path>
            <path d="M826.84,504.19 C828.11,513.65 848.92,538.76 848.92,538.76 C848.92,538.76 862.35,509.05 861.08,499.59 C859.809745,490.134885 851.115115,483.499745 841.66,484.77 C832.204885,486.040255 825.569745,494.734885 826.84,504.19 L826.84,504.19 Z" id="Path" fill="#000000" fill-rule="nonzero" opacity="0.25"></path>
            <path d="M838.02,436.21 C844.32,443.37 875.55,452.76 875.55,452.76 C875.55,452.76 870.27,420.58 863.98,413.41 C857.683954,406.230299 846.759702,405.513955 839.580001,411.810001 C832.400299,418.106047 831.683954,429.030298 837.98,436.21 L838.02,436.21 Z" id="Path" fill="#47B75B" fill-rule="nonzero"></path>
            <path d="M801.67,507.88 C806.67,516.01 835.86,530.54 835.86,530.54 C835.86,530.54 836.1,497.93 831.11,489.8 C826.117346,481.670368 815.479632,479.127346 807.35,484.12 C799.220368,489.112654 796.677346,499.750368 801.67,507.88 L801.67,507.88 Z" id="Path" fill="#47B75B" fill-rule="nonzero"></path>
            <polygon id="Path" fill="url(#linearGradient-1)" fill-rule="nonzero" points="374.84 59 374.84 86.38 374.84 764.46 882.24 764.46 882.24 86.38 882.24 59"></polygon>
            <rect id="Rectangle" fill="#F6F7F9" fill-rule="nonzero" x="379.29" y="65.19" width="498.5" height="26.89"></rect>
            <g id="Group" opacity="0.2" transform="translate(379.000000, 65.000000)" fill="#47B75B" fill-rule="nonzero">
                <rect id="Rectangle" x="0.29" y="0.19" width="498.5" height="26.89"></rect>
            </g>
            <rect id="Rectangle" fill="#F6F7F9" fill-rule="nonzero" x="379.29" y="92.08" width="498.5" height="666.19"></rect>
            <circle id="Oval" fill="#F6F7F9" fill-rule="nonzero" cx="392.4" cy="78.63" r="4.56"></circle>
            <circle id="Oval" fill="#F6F7F9" fill-rule="nonzero" cx="404.76" cy="78.63" r="4.56"></circle>
            <circle id="Oval" fill="#F6F7F9" fill-rule="nonzero" cx="417.12" cy="78.63" r="4.56"></circle>
            <g id="Group" opacity="0.2" transform="translate(468.000000, 133.000000)" fill="#E02020" fill-rule="nonzero">
                <rect id="Rectangle" x="0.26" y="0.15" width="320.55" height="12.55"></rect>
            </g>
            <rect id="Rectangle" fill="#E02020" fill-rule="nonzero" x="746.22" y="133.15" width="42.59" height="12.55"></rect>
            <g id="Group" opacity="0.2" transform="translate(422.000000, 202.000000)"></g>
            <g id="Group" opacity="0.2" transform="translate(422.000000, 167.000000)" fill="#47B75B" fill-rule="nonzero">
                <rect id="Rectangle" x="0.32" y="0.1" width="413" height="552"></rect>
            </g>
            <path d="M1024.57,693.5 C1024.57,693.5 1031.71,702.83 1021.28,716.91 C1010.85,730.99 1002.28,742.91 1005.73,751.67 C1005.73,751.67 1021.46,725.51 1034.27,725.15 C1047.08,724.79 1038.66,709.23 1024.57,693.5 Z" id="Path" fill="#3ACC6C" fill-rule="nonzero"></path>
            <path d="M1024.57,693.5 C1025.19317,694.398881 1025.6848,695.382137 1026.03,696.42 C1038.53,711.1 1045.18,724.8 1033.17,725.15 C1021.99,725.47 1008.56,745.47 1005.35,750.52 C1005.45557,750.909986 1005.58242,751.293895 1005.73,751.67 C1005.73,751.67 1021.46,725.51 1034.27,725.15 C1047.08,724.79 1038.66,709.23 1024.57,693.5 Z" id="Path" fill="#000000" fill-rule="nonzero" opacity="0.1"></path>
            <path d="M1037.84,705.39 C1037.84,708.67 1037.47,711.33 1037.02,711.33 C1036.57,711.33 1036.19,708.67 1036.19,705.39 C1036.19,702.11 1036.65,703.65 1037.11,703.65 C1037.57,703.65 1037.84,702.1 1037.84,705.39 Z" id="Path" fill="#FFD037" fill-rule="nonzero"></path>
            <path d="M1042.39,709.31 C1039.51,710.88 1036.99,711.83 1036.78,711.43 C1036.57,711.03 1038.72,709.43 1041.6,707.86 C1044.48,706.29 1043.35,707.44 1043.6,707.86 C1043.85,708.28 1045.27,707.77 1042.39,709.31 Z" id="Path" fill="#FFD037" fill-rule="nonzero"></path>
            <path d="M986.89,693.5 C986.89,693.5 979.75,702.83 990.18,716.91 C1000.61,730.99 1009.18,742.91 1005.73,751.67 C1005.73,751.67 990,725.51 977.19,725.15 C964.38,724.79 972.78,709.23 986.89,693.5 Z" id="Path" fill="#3ACC6C" fill-rule="nonzero"></path>
            <path d="M986.89,693.5 C986.266832,694.398881 985.775204,695.382137 985.43,696.42 C972.93,711.1 966.28,724.8 978.29,725.15 C989.48,725.47 1002.9,745.47 1006.11,750.52 C1006.00898,750.911338 1005.88204,751.29552 1005.73,751.67 C1005.73,751.67 990,725.51 977.19,725.15 C964.38,724.79 972.78,709.23 986.89,693.5 Z" id="Path" fill="#000000" fill-rule="nonzero" opacity="0.1"></path>
            <path d="M973.62,705.39 C973.62,708.67 973.99,711.33 974.45,711.33 C974.91,711.33 975.27,708.67 975.27,705.39 C975.27,702.11 974.81,703.65 974.36,703.65 C973.91,703.65 973.62,702.1 973.62,705.39 Z" id="Path" fill="#FFD037" fill-rule="nonzero"></path>
            <path d="M969.07,709.31 C971.96,710.88 974.47,711.83 974.69,711.43 C974.91,711.03 972.74,709.43 969.86,707.86 C966.98,706.29 968.11,707.44 967.86,707.86 C967.61,708.28 966.19,707.77 969.07,709.31 Z" id="Path" fill="#FFD037" fill-rule="nonzero"></path>
            <ellipse id="Oval" fill="#47B75B" fill-rule="nonzero" opacity="0.1" cx="1005.73" cy="811.6" rx="74.6" ry="11.45"></ellipse>
            <path d="M1044.13,739.1 L1043.77,742.01 L1043.27,746.13 L1043.06,747.84 L1042.56,751.96 L1042.34,753.68 L1041.84,757.79 L1036.13,804.59 C1035.62,808.77 1028.8,812.02 1020.56,812.02 L990.9,812.02 C982.66,812.02 975.9,808.77 975.34,804.59 L969.62,757.77 L969.12,753.66 L968.91,751.94 L968.4,747.82 L968.19,746.11 L967.69,741.99 L967.33,739.08 C967.05,736.77 970.78,734.77 975.4,734.77 L1036.07,734.77 C1040.72,734.77 1044.42,736.77 1044.13,739.1 Z" id="Path" fill="#4F007D" fill-rule="nonzero"></path>
            <polygon id="Path" fill="#9D9CB5" fill-rule="nonzero" points="1043.77 742.01 1043.27 746.12 968.19 746.12 967.69 742.01"></polygon>
            <polygon id="Path" fill="#9D9CB5" fill-rule="nonzero" points="1043.06 747.84 1042.56 751.96 968.91 751.96 968.4 747.84"></polygon>
            <polygon id="Path" fill="#9D9CB5" fill-rule="nonzero" points="1042.34 753.67 1041.84 757.79 969.62 757.79 969.12 753.67"></polygon>
            <g id="Group" transform="translate(0.780000, 0.770000)"></g>
            <path d="M341.78,455.77 L341.83,455.7 L341.74,455.63 L341.74,455.63 L341.2,455.27 L341.31,455.35 C340.507371,454.886031 339.483309,455.111672 338.95,455.87 L338.73,456.18 L338.73,456.18 L326.58,473.66 L324.46,476.77 C318.05,474.84 307.64,482.96 302.37,487.62 C302.04,487.91 301.73,488.18 301.45,488.44 C301.03,487.5 300.78,486.9 300.78,486.9 C300.52,489.76 290.42,494.05 288.06,495.61 C286.987947,496.257895 285.785947,496.660838 284.54,496.79 C284.88,485.92 276.47,474.48 276.47,474.48 L255.92,448.33 C255.163978,443.600765 255.897887,438.753468 258.02,434.46 C258.19,434.12 258.36,433.78 258.55,433.46 L258.65,433.46 C257.87254,435.657109 257.437458,437.960679 257.36,440.29 C257.41,442.06 259.05,450.64 261.36,450.29 C261.826935,450.337685 262.281671,450.121878 262.54,449.73 C264.38,447.59 264.54,443.95 264.45,440.58 C264.418133,441.570509 264.307788,442.556933 264.12,443.53 C264.27,440.73 263.95,437.77 263.95,435.66 C263.95,434.82 263.95,433.99 264.01,433.15 L264.26,433.15 C264.26,433.47 264.26,433.81 264.26,434.15 C264.26,433.8 264.26,433.46 264.26,433.15 L264.52,433.15 C269.129439,432.306432 273.448337,430.303565 277.07,427.33 C278.876295,427.257158 280.577339,426.460694 281.79,425.12 C282.235387,426.60541 281.900624,428.215279 280.9,429.4 C283.65,429.27 285.98,427.13 287.04,424.62 C287.94824,422.056785 288.216014,419.31038 287.82,416.62 C287.424642,413.92809 287.227445,411.210787 287.23,408.49 C287.419556,407.021311 287.499777,405.540572 287.47,404.06 C287.425785,403.607659 287.34553,403.159569 287.23,402.72 L287.31,402.72 C287.842197,402.731073 288.356851,402.52953 288.74,402.16 C289.88,401.28 290.25,399.56 290.54,398.24 C291.329313,395.201942 291.686161,392.067736 291.6,388.93 C291.54,389.88 291.42,390.84 291.28,391.79 C291.53,388.19 291.03,384.69 288.65,382.08 C287.01,380.29 284.72,379.24 282.52,378.19 C281.73327,377.9087 281.040633,377.413465 280.52,376.76 C280.131146,375.98985 279.919317,375.142534 279.9,374.28 C279.13,369.02 274.18,365.36 269.25,363.28 C262.91,360.52 255.25,359.34 249.2,362.62 C246.2,364.21 243.9,366.7 241.2,368.73 C237.82,371.3 233.92,373.1 230.31,375.34 C226.7,377.58 223.31,380.42 221.54,384.28 C218.89,390.28 220.88,397.08 221.21,403.59 C221.74,413.84 217.52,424.59 209.16,430.59 C208.15806,431.20421 207.262981,431.977693 206.51,432.88 C205.757473,433.815734 205.669596,435.121897 206.29,436.15 C206.72,436.71 207.4,437.03 207.87,437.56 C208.82,438.64 208.63,440.29 208.26,441.67 C207.045779,446.185152 204.626034,450.28489 201.26,453.53 C201.41,454.59 202.72,455.01 203.79,455.17 C206.620904,455.586383 209.47864,455.793611 212.34,455.79 L213.57,455.79 C213.44,456.12 213.3,456.47 213.16,456.84 C211.61,460.92 209.6,467.2 210.27,471.04 C211.27,477.1 214.47,504.81 212.89,509.67 C211.31,514.53 215.43,549.77 215.43,549.77 C215.43,549.77 215.98,552.49 216.93,556.55 C214.46,562.37 211.64,568.83 210.23,571.42 C207.39,576.61 208.79,603.11 218.58,614.89 C218.58,614.89 222.58,620.61 221.58,622.68 C220.58,624.75 221.76,628.4 221.76,628.4 L223.31,662.69 C223.276829,666.194473 223.036409,669.693917 222.59,673.17 C218.41,678.34 211.97,685.88 208.94,687.11 C204.25,689.02 169.27,731.45 169.27,731.45 C169.27,731.45 169.55,731.96 170.1,732.79 L169.1,733.93 L162.39,741.71 L161.86,742.32 C160.6,742.08 152.21,740.56 145.56,740.08 L144.9,740.08 L144.9,739.96 C142.569378,739.693011 140.212708,739.756978 137.9,740.15 C137.462517,740.230915 137.058842,740.439713 136.74,740.75 C134.47,743.53 133.25,787.17 133.25,787.17 C133.25,787.17 135.67,809.02 143.25,810.24 C143.636398,810.374261 144.041104,810.448457 144.45,810.46 L144.78,810.46 C150.18,810.06 152.66,806.97 153.78,804.85 C154.111294,804.216712 154.363196,803.544972 154.53,802.85 C154.53,802.85 153.65,798.96 156.01,793.59 C158.37,788.22 162.78,778.77 162.78,778.77 C162.78,778.77 170.78,770.36 169.35,766.28 C169.57,765.95 169.83,765.59 170.11,765.18 C173.11,760.9 179.19,752.45 184.11,746.81 C184.43,746.43 184.75,746.08 185.11,745.73 C186.899779,746.485466 188.772871,747.02591 190.69,747.34 C190.69,747.34 198.21,744.4 201,737.82 C202.19,735.02 206.86,730.06 211.83,725.29 L211.67,726.56 L211.5,768.3 C213.116167,769.409957 214.837827,770.357875 216.64,771.13 L216.64,772.13 C216.675198,778.077396 216.3144,784.020539 215.56,789.92 L215.41,790.85 C214.79,790.41 214.25,790.26 213.91,790.6 C212.37,792.16 211.41,802.12 211.32,806.71 C211.32,806.86 211.32,807.01 211.32,807.17 C211.07,811.75 208.46,818.41 216.32,818.75 C222.2,819 247.55,819.38 261.11,819.58 C268.415547,819.718246 275.522715,817.198755 281.11,812.49 C285.42,808.8 288.03,804.41 282.16,801.18 C281.8,800.98 281.42,800.79 281,800.6 L268,798.6 L245.79,787.26 C245.79,787.26 245.66,780.4 242.99,781.54 C242.196773,781.712932 241.436886,782.01351 240.74,782.43 C240.61,782.18 240.47,781.91 240.34,781.63 C238.531044,778.045485 237.592337,774.085098 237.6,770.07 C237.6,769.71 237.6,769.34 237.65,768.97 C238.300433,768.377214 238.914862,767.746089 239.49,767.08 C239.49,767.08 239.32,751.49 241.07,748.55 C242.82,745.61 248.24,715.81 248.24,715.81 C248.24,715.81 248.41,710.27 251.91,706.98 C255.41,703.69 254.18,694.16 254.18,694.16 C254.18,694.16 259.08,691.56 260.65,683.08 C262.22,674.6 267.3,656.08 267.3,656.08 C267.3,656.08 277.79,628.71 277.1,611.4 C276.41,594.09 278.1,585.07 278.1,585.07 L280.28,544.83 L280.28,544.21 C281.15,544.87 281.74,545.41 281.74,545.41 C281.74,545.41 281.74,545.25 281.74,544.97 C282.06,545.24 282.24,545.41 282.24,545.41 C282.24,545.41 283.36,527.15 282.98,519.91 C289.1,517.83 298.42,514.41 298.98,512.67 C299.76,510.08 310.26,501.89 310.26,501.89 C310.032897,501.853101 309.815367,501.771527 309.62,501.65 C309.95,501.5 310.29,501.32 310.62,501.13 C317.5,497.45 330.28,486.69 328.13,480.13 L342.13,460.04 C343.033645,458.711898 342.887853,456.933225 341.78,455.77 Z" id="Path" fill="url(#linearGradient-2)" fill-rule="nonzero"></path>
            <path d="M309.21,504.29 C308.188284,504.93066 307.049651,505.36232 305.86,505.56 C301.49,505.69 297.86,493.86 297.86,493.86 C297.86,493.86 299.1,492.6 301.08,490.86 C306.94,485.65 319.23,476.03 324.99,481.41 C331.49,487.42 316.78,500.22 309.21,504.29 Z" id="Path" fill="#ECB4B6" fill-rule="nonzero"></path>
            <path d="M242.78,786.42 L226.65,803.830268 C226.65,803.830268 211.73,804 214.65,795.77 C215.233344,793.986006 215.648486,792.151343 215.89,790.29 C216.625005,784.445954 216.975758,778.559977 216.94,772.67 C216.94,768.81 216.88,766.1 216.88,766.1 C216.88,766.1 240.37,755.81 237.97,766.53 C237.671419,767.870096 237.510583,769.237199 237.49,770.61 C237.480551,774.58317 238.398207,778.50375 240.17,782.06 C240.895039,783.595342 241.769242,785.055696 242.78,786.42 Z" id="Path" fill="#ECB4B6" fill-rule="nonzero"></path>
            <path d="M242.78,786.42 L226.65,803.83 C226.65,803.83 211.73,804 214.65,795.77 C215.233344,793.986006 215.648486,792.151343 215.89,790.29 C218.02,791.94 221.08,796.8 221.08,796.8 C221.08,796.8 231.37,799.8 234.2,790.8 C235.78,785.8 238.28,783.27 240.2,782.06 C240.915509,783.594123 241.779639,785.054436 242.78,786.42 Z" id="Path" fill="#000000" fill-rule="nonzero" opacity="0.1"></path>
            <path d="M280.2,812.64 C274.731183,817.299252 267.742903,819.789983 260.56,819.64 C247.26,819.45 222.41,819.06 216.64,818.82 C208.92,818.48 211.48,811.89 211.73,807.35 C211.73,807.19 211.73,807.05 211.73,806.9 C211.82,802.35 212.73,792.49 214.27,790.95 C215.81,789.41 221.08,797.81 221.08,797.81 C221.08,797.81 231.37,800.81 234.2,791.81 C237.03,782.81 242.78,781.94 242.78,781.94 C245.39,780.81 245.52,787.6 245.52,787.6 L267.3,798.83 L280.08,800.83 C280.49,801.02 280.86,801.21 281.21,801.4 C286.99,804.64 284.43,808.98 280.2,812.64 Z" id="Path" fill="#C17174" fill-rule="nonzero"></path>
            <circle id="Oval" fill="#FFFFFF" fill-rule="nonzero" opacity="0.25" cx="239.96" cy="794.39" r="1"></circle>
            <circle id="Oval" fill="#FFFFFF" fill-rule="nonzero" opacity="0.25" cx="248.8" cy="798.77" r="1"></circle>
            <circle id="Oval" fill="#FFFFFF" fill-rule="nonzero" opacity="0.25" cx="253.34" cy="800.8" r="1"></circle>
            <circle id="Oval" fill="#FFFFFF" fill-rule="nonzero" opacity="0.25" cx="262.77" cy="804.42" r="1"></circle>
            <circle id="Oval" fill="#FFFFFF" fill-rule="nonzero" opacity="0.25" cx="257.97" cy="802.88" r="1"></circle>
            <path d="M280.2,812.64 C274.731183,817.299252 267.742903,819.789983 260.56,819.64 C247.26,819.45 222.41,819.06 216.64,818.82 C208.92,818.48 211.48,811.89 211.73,807.35 L260.2,810.35 C260.2,810.35 280.05,807.35 281.2,801.43 C286.99,804.64 284.43,808.98 280.2,812.64 Z" id="Path" fill="#C17174" fill-rule="nonzero"></path>
            <path d="M280.2,812.64 C274.731183,817.299252 267.742903,819.789983 260.56,819.64 C247.26,819.45 222.41,819.06 216.64,818.82 C208.92,818.48 211.48,811.89 211.73,807.35 L260.2,810.35 C260.2,810.35 280.05,807.35 281.2,801.43 C286.99,804.64 284.43,808.98 280.2,812.64 Z" id="Path" fill="#FFFFFF" fill-rule="nonzero" opacity="0.25"></path>
            <path d="M189.97,742.69 C188.186502,744.145219 186.557882,745.780541 185.11,747.57 C180.3,753.15 174.35,761.57 171.4,765.75 C170.26,767.39 169.57,768.42 169.57,768.42 L163.13,767.47 C163.13,767.47 156.19,756.84 156.28,756.59 C156.37,756.34 161.78,744.92 161.78,744.92 L163.87,742.47 L170.46,734.77 L173.46,731.29 C173.46,731.29 195.78,738.49 189.97,742.69 Z" id="Path" fill="#ECB4B6" fill-rule="nonzero"></path>
            <path d="M171.4,765.77 C170.26,767.41 169.57,768.44 169.57,768.44 L163.13,767.49 C163.13,767.49 156.19,756.86 156.28,756.61 C156.37,756.36 161.78,744.92 161.78,744.92 L163.87,742.47 L164.55,742.6 L166.19,742.6 C160.44,748.6 166.61,761.8 166.61,761.8 C166.61,761.8 169.27,762.05 171.4,765.77 Z" id="Path" fill="#000000" fill-rule="nonzero" opacity="0.1"></path>
            <path d="M164.21,779.21 C164.21,779.21 159.92,788.47 157.6,793.79 C155.28,799.11 156.14,802.96 156.14,802.96 C155.976656,803.653202 155.731608,804.324565 155.41,804.96 C153.734486,808.292363 150.358793,810.430046 146.63,810.52 L146.21,810.52 C138.39,810.32 135.91,787.62 135.91,787.62 C135.91,787.62 137.11,744.41 139.34,741.62 C139.646669,741.309449 140.040962,741.10009 140.47,741.02 C142.745562,740.625486 145.066154,740.561493 147.36,740.83 C154.43,741.34 163.52,743.08 163.52,743.08 L165.15,743.08 C159.4,749.08 165.57,762.29 165.57,762.29 C165.57,762.29 168.32,762.54 170.46,766.4 C172.6,770.26 164.21,779.21 164.21,779.21 Z" id="Path" fill="#C17174" fill-rule="nonzero"></path>
            <circle id="Oval" fill="#FFFFFF" fill-rule="nonzero" opacity="0.25" cx="154.77" cy="766.35" r="1"></circle>
            <circle id="Oval" fill="#FFFFFF" fill-rule="nonzero" opacity="0.25" cx="154.3" cy="773.84" r="1"></circle>
            <path d="M154.78,804.77 C153.104486,808.102363 149.728793,810.240046 146,810.33 L145.59,810.33 C137.77,810.13 135.28,787.43 135.28,787.43 C135.28,787.43 136.48,744.22 138.71,741.43 C139.016669,741.119449 139.410962,740.91009 139.84,740.83 C142.115562,740.435486 144.436154,740.371493 146.73,740.64 C146.6,748.41 146.23,772.96 146.73,775.4 C147.23,777.84 151.66,798.26 154.78,804.77 Z" id="Path" fill="#C17174" fill-rule="nonzero"></path>
            <path d="M154.78,804.77 C153.104486,808.102363 149.728793,810.240046 146,810.33 L145.59,810.33 C137.77,810.13 135.28,787.43 135.28,787.43 C135.28,787.43 136.48,744.22 138.71,741.43 C139.016669,741.119449 139.410962,740.91009 139.84,740.83 C142.115562,740.435486 144.436154,740.371493 146.73,740.64 C146.6,748.41 146.23,772.96 146.73,775.4 C147.23,777.84 151.66,798.26 154.78,804.77 Z" id="Path" fill="#FFFFFF" fill-rule="nonzero" opacity="0.25"></path>
            <path d="M145.58,810.35 C137.76,810.15 135.27,787.45 135.27,787.45 C135.27,787.45 136.47,744.24 138.7,741.45 C139.006669,741.139449 139.400962,740.93009 139.83,740.85 C141.47,743.29 142.91,748.69 141.61,760.57 C139.17,783.08 142.11,784.5 142.11,784.5 C142.11,784.5 145.78,803.63 145.58,810.35 Z" id="Path" fill="#C17174" fill-rule="nonzero"></path>
            <path d="M145.58,810.35 C137.76,810.15 135.27,787.45 135.27,787.45 C135.27,787.45 136.47,744.24 138.7,741.45 C139.006669,741.139449 139.400962,740.93009 139.83,740.85 C141.47,743.29 142.91,748.69 141.61,760.57 C139.17,783.08 142.11,784.5 142.11,784.5 C142.11,784.5 145.78,803.63 145.58,810.35 Z" id="Path" fill="#000000" fill-rule="nonzero" opacity="0.1"></path>
            <path d="M309.21,504.29 C308.188284,504.93066 307.049651,505.36232 305.86,505.56 C301.49,505.69 297.86,493.86 297.86,493.86 C297.86,493.86 299.1,492.6 301.08,490.86 C302.51,494.06 306.45,502.69 309.21,504.29 Z" id="Path" fill="#000000" fill-rule="nonzero" opacity="0.1"></path>
            <path d="M281.17,500.03 C281.17,500.03 284.77,500.29 287.08,498.75 C289.39,497.21 299.3,492.96 299.56,490.13 C299.56,490.13 305.47,504.53 308.82,505.05 C308.82,505.05 298.53,513.15 297.76,515.72 C296.99,518.29 276.92,524.6 276.92,524.6 L281.17,500.03 Z" id="Path" fill="#4F007D" fill-rule="nonzero"></path>
            <path d="M281.17,500.03 C281.17,500.03 284.77,500.29 287.08,498.75 C289.39,497.21 299.3,492.96 299.56,490.13 C299.56,490.13 305.47,504.53 308.82,505.05 C308.82,505.05 298.53,513.15 297.76,515.72 C296.99,518.29 276.92,524.6 276.92,524.6 L281.17,500.03 Z" id="Path" fill="#4F007D" fill-rule="nonzero" opacity="0.1"></path>
            <path d="M189.97,742.69 C188.186502,744.145219 186.557882,745.780541 185.11,747.57 C177.35,744.32 172.35,737.68 170.45,734.77 L173.45,731.29 C173.45,731.29 195.78,738.49 189.97,742.69 Z" id="Path" fill="#000000" fill-rule="nonzero" opacity="0.1"></path>
            <path d="M226.67,669.77 C226.67,669.77 214.09,686.58 209.49,688.47 C204.89,690.36 170.6,732.37 170.6,732.37 C170.6,732.37 177.97,745.92 191.52,748.14 C191.52,748.14 198.89,745.23 201.64,738.71 C204.39,732.19 225.99,713.77 225.99,713.77 L226.67,669.77 Z" id="Path" fill="#47B75B" fill-rule="nonzero"></path>
            <path d="M226.67,669.77 C226.67,669.77 214.09,686.58 209.49,688.47 C204.89,690.36 170.6,732.37 170.6,732.37 C170.6,732.37 177.97,745.92 191.52,748.14 C191.52,748.14 198.89,745.23 201.64,738.71 C204.39,732.19 225.99,713.77 225.99,713.77 L226.67,669.77 Z" id="Path" fill="#47B75B" fill-rule="nonzero" opacity="0.1"></path>
            <path d="M188.56,726.02 C192.366211,726.419531 196.203789,726.419531 200.01,726.02 C206.78,725.37 201.68,729.49 188.56,726.02 Z" id="Path" fill="#000000" fill-rule="nonzero" opacity="0.1"></path>
            <path d="M185.47,730.39 C185.47,730.39 194.47,735.53 197.95,732.96 C201.43,730.39 194.6,735.44 185.47,730.39 Z" id="Path" fill="#000000" fill-rule="nonzero" opacity="0.1"></path>
            <path d="M237.99,766.53 C237.691419,767.870096 237.530583,769.237199 237.51,770.61 C230.56,776.92 222.19,774.97 216.96,772.67 C216.96,768.81 216.9,766.1 216.9,766.1 C216.9,766.1 240.39,755.77 237.99,766.53 Z" id="Path" fill="#000000" fill-rule="nonzero" opacity="0.1"></path>
            <path d="M279.66,542.82 L279.41,547.56 L277.27,587.41 C277.27,587.41 275.55,596.33 276.27,613.47 C276.99,630.61 266.63,657.77 266.63,657.77 C266.63,657.77 261.63,676.12 260.11,684.52 C258.59,692.92 253.77,695.52 253.77,695.52 C253.77,695.52 254.97,704.95 251.54,708.21 C248.11,711.47 247.94,716.95 247.94,716.95 C247.94,716.95 242.62,746.45 240.94,749.37 C239.26,752.29 239.39,767.72 239.39,767.72 C228.25,780.92 211.96,768.92 211.96,768.92 L212.13,727.59 C212.13,727.59 216.76,689.52 220.19,684.2 C223.62,678.88 223.62,664.31 223.62,664.31 L222.09,630.31 C222.09,630.31 220.87,626.71 221.92,624.65 C222.97,622.59 218.99,616.94 218.99,616.94 C209.38,605.27 207.99,579.03 210.8,573.94 C213.61,568.85 221.92,548.22 221.92,548.22 L233.39,541.53 L254.12,542.14 L279.66,542.82 Z" id="Path" fill="#47B75B" fill-rule="nonzero"></path>
            <path d="M230.88,744.92 C230.88,744.92 233.59,754.31 235.77,755.34 C237.95,756.37 230.88,744.92 230.88,744.92 Z" id="Path" fill="#000000" fill-rule="nonzero" opacity="0.1"></path>
            <path d="M234.61,713.67 C234.61,713.67 241.61,719.21 244.61,719.200014 C247.61,719.19 234.61,713.67 234.61,713.67 Z" id="Path" fill="#000000" fill-rule="nonzero" opacity="0.1"></path>
            <path d="M276.92,481.51 L276.92,492.83 L269.45,489.61 L262,486.4 L245.78,470.45 C245.78,470.45 232.95,462.12 226.09,454.53 C222.17,450.2 220.2,446.11 223.65,443.95 C225.32206,442.855066 226.833277,441.53233 228.14,440.02 C231.587777,435.955632 234.585253,431.529829 237.08,426.82 C237.19,426.63 237.3,426.44 237.4,426.25 C240.74,420.12 242.95,414.89 242.95,414.89 C242.95,414.89 252.35,417.89 258.39,422.17 C258.88,422.51 259.34,422.86 259.78,423.22 C263.15,425.98 264.83,429.22 261.72,432.38 C260.921082,433.205958 260.182515,434.088227 259.51,435.02 L259.51,435.02 C259.007784,435.71214 258.546978,436.433402 258.13,437.18 C257.95,437.52 257.77,437.85 257.61,438.18 C255.529194,442.436381 254.809918,447.230384 255.55,451.91 L276.92,481.51 Z" id="Path" fill="#ECB4B6" fill-rule="nonzero"></path>
            <path d="M275.55,400.77 C275.94,401.45 276.48,402.03 276.84,402.72 C277.446531,404.242612 277.643071,405.897685 277.41,407.52 C277.215066,410.084139 277.383396,412.662959 277.91,415.18 C278.44,417.44 279.43,419.62 279.51,421.94 C279.62,425.21 277.92,428.24 276.28,431.07 C278.080658,431.015242 279.779839,430.223496 280.98,428.88 C281.421103,430.344989 281.098132,431.933555 280.12,433.11 C282.81,432.98 285.12,430.86 286.12,428.38 C287.03253,425.81765 287.297053,423.06936 286.89,420.38 C286.498337,417.71465 286.304474,415.023967 286.31,412.33 C286.496003,410.874447 286.572884,409.407021 286.54,407.94 C286.29,405.03 284.54,402.5 282.78,400.14 L279.3,395.36 C279.058205,394.969219 278.711786,394.653977 278.3,394.45 C275.01,393.05 274.63,399.11 275.55,400.77 Z" id="Path" fill="#464353" fill-rule="nonzero"></path>
            <path d="M261.78,432.38 C260.981082,433.205958 260.242515,434.088227 259.57,435.02 L259.57,435.02 C259.067784,435.71214 258.606978,436.433402 258.19,437.18 C258.01,437.52 257.83,437.85 257.67,438.18 C249.643595,437.73018 242.235076,433.72716 237.46,427.26 C237.35,427.11 237.24,426.96 237.14,426.8 C237.25,426.61 237.36,426.42 237.46,426.23 C240.8,420.1 243.01,414.87 243.01,414.87 C243.01,414.87 252.41,417.87 258.45,422.15 C258.94,422.49 259.4,422.84 259.84,423.2 C263.17,425.98 264.85,429.18 261.78,432.38 Z" id="Path" fill="#000000" fill-rule="nonzero" opacity="0.1"></path>
            <path d="M286.160001,410.21 C286.163141,423.238145 276.862694,434.410458 264.05,436.77 C262.43323,437.063785 260.793244,437.211049 259.15,437.210006 L259.03,437.210006 C258.74,437.210006 258.44,437.210006 258.15,437.210006 C243.380897,436.662617 231.796499,424.342762 232.158088,409.567943 C232.519678,394.793123 244.692862,383.054696 259.47106,383.230434 C274.249259,383.406172 286.13986,395.43076 286.15,410.21 L286.160001,410.21 Z" id="Path" fill="#ECB4B6" fill-rule="nonzero"></path>
            <path d="M262.69,476.97 C262.69,476.97 276.29,484.64 272.81,478.17 L255.06,451.93 L255.06,451.93 L275.21,477.82 C275.21,477.82 288.07,495.49 281.04,507.66 C281.04,507.66 280.04,517.78 281.21,520.18 C282.38,522.58 280.87,548.18 280.87,548.18 C280.87,548.18 276.06,543.72 273.49,544.57 C270.92,545.42 252.78,546.94 252.78,546.94 L262.69,476.97 Z" id="Path" fill="#000000" fill-rule="nonzero" opacity="0.1"></path>
            <path d="M279.66,542.82 L279.41,547.56 C277.78,546.38 275.51,545.06 274,545.56 C271.43,546.42 253.26,547.97 253.26,547.97 L254.09,542.06 L279.66,542.82 Z" id="Path" fill="#000000" fill-rule="nonzero" opacity="0.1"></path>
            <path d="M263.2,476.97 C263.2,476.97 276.81,484.64 273.32,478.17 L255.57,451.93 L255.57,451.93 L275.72,477.82 C275.72,477.82 288.58,495.49 281.55,507.66 C281.55,507.66 280.55,517.78 281.72,520.18 C282.89,522.58 281.38,548.18 281.38,548.18 C281.38,548.18 276.58,543.72 274.01,544.57 C271.44,545.42 253.26,546.98 253.26,546.98 L263.2,476.97 Z" id="Path" fill="#464353" fill-rule="nonzero"></path>
            <path d="M270.47,490.12 C269.68,498.37 266.29,508.18 266.29,508.18 C266.29,508.18 263.89,532.53 260.78,539.77 C257.67,547.01 259.06,556.92 257.35,575.27 C256.73,581.88 254.6,586.42 251.73,589.48 C247.01,594.48 240.27,595.57 234.95,595.26 L233.69,595.16 C225.11,594.31 216.88,552.98 216.88,552.98 C216.88,552.98 212.94,517.82 214.48,512.98 C216.02,508.14 212.96,480.77 211.93,474.77 C211.27,470.96 213.24,464.77 214.76,460.71 C215.65,458.37 216.38,456.71 216.38,456.71 C216.38,456.71 219.3,447.45 224.1,442.65 C225.437124,441.277198 227.273634,440.50507 229.19,440.509977 C231.446604,440.601579 233.638221,441.291852 235.54,442.51 C235.616996,442.554405 235.690537,442.604547 235.76,442.66 C235.76,442.66 266.98,474.56 269.89,481.93 C270.7,484 270.78,486.94 270.47,490.12 Z" id="Path" fill="#000000" fill-rule="nonzero" opacity="0.1"></path>
            <path d="M269.45,489.61 C268.65,497.85 265.26,507.66 265.26,507.66 C265.26,507.66 262.86,532.02 259.77,539.22 C256.68,546.42 258.06,556.37 256.34,574.72 C255.72,581.32 253.59,585.86 250.72,588.93 C246,593.93 239.26,595.01 233.94,594.71 L232.68,594.61 C224.1,593.75 215.87,552.42 215.87,552.42 C215.87,552.42 211.93,517.27 213.47,512.47 C215.01,507.67 211.93,480.23 210.9,474.22 C210.24,470.42 212.21,464.22 213.73,460.16 C214.62,457.82 215.35,456.21 215.35,456.21 C215.35,456.21 218.27,446.95 223.07,442.15 C224.403476,440.77305 226.243266,440.003157 228.16,440.019729 C230.418375,440.101367 232.612622,440.792468 234.51,442.02 L234.73,442.16 C234.73,442.16 265.95,474.06 268.86,481.43 C269.67,483.48 269.78,486.43 269.45,489.61 Z" id="Path" fill="#4F007D" fill-rule="nonzero"></path>
            <path d="M234.48,615.15 C234.48,615.15 227.4,621.45 224.96,621.15 C222.52,620.85 234.48,615.15 234.48,615.15 Z" id="Path" fill="#000000" fill-rule="nonzero" opacity="0.1"></path>
            <path d="M236.36,621.2 C236.36,621.2 228.9,624.66 226.67,625.2 C224.44,625.74 233.48,620.31 236.36,621.2 Z" id="Path" fill="#000000" fill-rule="nonzero" opacity="0.1"></path>
            <path d="M265.22,526.53 C265.22,526.53 276.28,526.66 277.95,530.13 C279.62,533.6 268.78,525.11 265.22,526.53 Z" id="Path" fill="#000000" fill-rule="nonzero" opacity="0.1"></path>
            <path d="M263.67,532.57 C263.67,532.57 272.16,534.37 274.73,536.43 C277.3,538.49 263.67,532.57 263.67,532.57 Z" id="Path" fill="#000000" fill-rule="nonzero" opacity="0.1"></path>
            <path d="M249.4,511.61 C249.4,511.61 248.4,546.46 244.58,550.97 C240.76,555.48 249.4,511.61 249.4,511.61 Z" id="Path" fill="#000000" fill-rule="nonzero" opacity="0.1"></path>
            <path d="M239.88,610.13 C239.88,610.13 232.78,640.87 247.02,642.77 C261.26,644.67 256.86,607.77 256.86,607.77 L239.88,610.13 Z" id="Path" fill="#000000" fill-rule="nonzero" opacity="0.1"></path>
            <path d="M239.36,609.62 C239.36,609.62 232.3,640.36 246.51,642.28 C260.72,644.2 256.34,607.28 256.34,607.28 L239.36,609.62 Z" id="Path" fill="#ECB4B6" fill-rule="nonzero"></path>
            <path d="M285.99,407.23 C285.593881,406.642331 285.25881,406.015748 284.99,405.36 C283.1,401.42 278.24,403.36 274.68,405.23 L272.78,407.68 C271.913026,408.696776 271.183445,409.823087 270.61,411.03 C270.245064,412.010268 269.94115,413.012183 269.7,414.03 C269.21,415.77 268.49,417.43 267.84,419.13 C265.684153,424.78222 264.406025,430.731084 264.05,436.77 C262.43323,437.063785 260.793244,437.211049 259.15,437.21 L259.03,437.21 L259.03,437.09 C259.21,436.41 259.36,435.72 259.5,435.03 L259.5,435.03 C260.244469,431.138932 260.335717,427.151046 259.77,423.23 C259.77,423.14 259.77,423.06 259.77,422.97 C259.64,422.1 259.47,421.22 259.4,420.35 C259.07,420.95 258.75,421.56 258.4,422.18 C256.25,426.18 253.99,430.18 249.93,431.93 C248.28246,432.576793 246.545741,432.967977 244.78,433.09 C242.60025,433.206322 240.440252,433.565204 238.34,434.16 C237.623879,434.355829 236.976389,434.747093 236.47,435.29 C235.904703,436.126364 235.579581,437.101731 235.53,438.11 C235.313262,439.440406 234.97861,440.748896 234.53,442.02 C232.693812,446.76499 229.824421,451.041748 226.13,454.54 L225.2,455.44 C223.616131,457.074417 221.727167,458.382423 219.64,459.29 C217.743741,459.927621 215.749819,460.225524 213.75,460.17 C214.64,457.83 215.37,456.22 215.37,456.22 C215.37,456.22 218.29,446.96 223.09,442.16 C224.423476,440.78305 226.263266,440.013157 228.18,440.03 C231.763042,435.794032 234.868445,431.176169 237.44,426.26 C230.704307,417.120319 230.405909,404.74326 236.693336,395.289605 C242.980763,385.83595 254.510614,381.325611 265.543812,384.003646 C276.57701,386.68168 284.756151,395.975888 286.01,407.26 L285.99,407.23 Z" id="Path" fill="#000000" fill-rule="nonzero" opacity="0.1"></path>
            <path d="M287.71,386.16 C286.11,384.38 283.86,383.34 281.71,382.31 C280.944554,382.019854 280.271092,381.529436 279.76,380.89 C279.386909,380.125705 279.182297,379.290203 279.16,378.44 C278.41,373.22 273.55,369.61 268.72,367.49 C262.5,364.76 255.03,363.59 249.06,366.83 C246.16,368.41 243.87,370.88 241.25,372.89 C237.93,375.43 234.11,377.21 230.57,379.43 C227.03,381.65 223.65,384.43 221.97,388.29 C219.37,394.19 221.32,400.96 221.65,407.4 C222.16,417.56 218.03,428.17 209.83,434.18 C208.842048,434.785346 207.963091,435.552743 207.23,436.45 C206.496075,437.378603 206.412492,438.664183 207.02,439.68 C207.43,440.24 208.11,440.56 208.56,441.08 C209.5,442.15 209.31,443.78 208.94,445.16 C207.755471,449.618125 205.384757,453.671838 202.08,456.89 C202.22,457.95 203.5,458.36 204.55,458.52 C207.327459,458.933021 210.132008,459.136928 212.94,459.13 C217.377497,459.493767 221.726104,457.740236 224.67,454.4 C229.67,449.7 233.9,443.83 235.03,437.07 C235.088872,436.063496 235.413196,435.090526 235.97,434.25 C236.48362,433.716071 237.128465,433.326406 237.84,433.12 C241.57,431.84 245.84,432.47 249.43,430.89 C254.11,428.89 256.43,423.89 258.88,419.31 C258.96,420.18 259.12,421.06 259.26,421.94 C259.974046,426.64608 259.736009,431.44762 258.56,436.06 C257.89,438.67 256.92,441.27 256.99,443.96 C257.04,445.96 259.07,456.41 261.74,453.28 C264.41,450.15 263.43,443.23 263.43,439.35 C263.43303,432.086263 264.764957,424.884367 267.36,418.1 C268,416.41 268.73,414.74 269.22,413 C269.462405,411.983618 269.762898,410.981973 270.12,410 C270.700693,408.794858 271.433317,407.669035 272.3,406.65 L274.21,404.2 C277.77,402.31 282.63,400.39 284.52,404.33 C285.24,405.84 285.63,407.51 287.52,406.04 C288.63,405.17 288.99,403.46 289.28,402.16 C290.47,396.71 291.45,390.3 287.71,386.16 Z" id="Path" fill="#472727" fill-rule="nonzero"></path>
            <path d="M251.52,480.57 C250.79,462.1 224.94,458.28 218.91,475.75 C218.861044,475.866827 218.820932,475.987165 218.79,476.11 C214.84,487.94 216.56,517.9 216.56,517.9 C216.56,517.9 217.07,538.02 218.96,544.71 C220.85,551.4 226.16,570.6 226.16,573.71 C226.16,576.82 231.09,588.63 233.16,589.49 C235.23,590.35 236.28,597.03 236.79,598.23 C237.3,599.43 238.79,615.04 238.79,615.04 C238.79,615.04 258.17,613.84 258.51,610.75 C258.85,607.66 254.22,592.57 254.22,592.57 C254.22,592.57 250.81,586.4 250.37,581.43 C249.93,576.46 247.25,574.2 247.78,570.77 C248.31,567.34 246.23,565.63 246.23,563.4 C246.23,561.17 244.69,555.17 244.69,555.17 C244.69,555.17 241.43,552.59 241.95,549.51 C242.47,546.43 237.32,540.25 238.69,538.02 C240.06,535.79 240.4,530.3 240.4,530.3 C240.4,530.3 242.12,505.61 243.32,498.92 C244.52,492.23 251.55,481.43 251.55,481.43 C251.55,481.43 251.54,481.12 251.52,480.57 Z" id="Path" fill="#000000" fill-rule="nonzero" opacity="0.1"></path>
            <path d="M250.72,588.93 C246,593.93 239.26,595.01 233.94,594.71 C233.32,592.37 232.42,589.49 231.11,588.95 C229.03,588.09 224.11,576.26 224.11,573.18 C224.11,570.1 218.8,550.88 216.91,544.18 C215.02,537.48 214.51,517.38 214.51,517.38 C214.51,517.38 212.79,487.38 216.74,475.58 C216.74,475.47 216.81,475.35 216.86,475.23 C222.86,457.75 248.74,461.58 249.47,480.05 C249.47,480.6 249.47,480.9 249.47,480.9 C249.47,480.9 242.47,491.7 241.24,498.39 C240.01,505.08 238.34,529.77 238.34,529.77 C238.34,529.77 237.99,535.26 236.62,537.49 C235.25,539.72 240.39,545.9 239.88,548.98 C239.37,552.06 242.62,554.64 242.62,554.64 C242.62,554.64 244.16,560.64 244.16,562.88 C244.16,565.12 246.22,566.82 245.71,570.25 C245.2,573.68 247.94,575.91 248.38,580.88 C248.747391,583.666444 249.536411,586.380811 250.72,588.93 L250.72,588.93 Z" id="Path" fill="#000000" fill-rule="nonzero" opacity="0.1"></path>
            <path d="M250.49,480.06 C249.76,461.59 223.91,457.77 217.88,475.24 L217.76,475.59 C213.81,487.43 215.53,517.39 215.53,517.39 C215.53,517.39 216.04,537.5 217.93,544.19 C219.82,550.88 225.13,570.09 225.13,573.19 C225.13,576.29 230.06,588.11 232.13,588.97 C234.2,589.83 235.25,596.52 235.76,597.72 C236.27,598.92 237.76,614.52 237.76,614.52 C237.76,614.52 257.14,613.32 257.48,610.24 C257.82,607.16 253.2,592.06 253.2,592.06 C253.2,592.06 249.78,585.88 249.34,580.91 C248.9,575.94 246.16,573.71 246.68,570.28 C247.2,566.85 245.13,565.13 245.13,562.9 C245.13,560.67 243.59,554.67 243.59,554.67 C243.59,554.67 240.33,552.1 240.85,549.01 C241.37,545.92 236.22,539.75 237.59,537.52 C238.96,535.29 239.3,529.81 239.3,529.81 C239.3,529.81 241.02,505.11 242.22,498.42 C243.42,491.73 250.45,480.93 250.45,480.93 C250.45,480.93 250.51,480.61 250.49,480.06 Z" id="Path" fill="#4F007D" fill-rule="nonzero"></path>
            <path d="M218.66,527.56 C219.17,527.04 228.95,516.24 232.03,520.1 C235.11,523.96 218.66,527.56 218.66,527.56 Z" id="Path" fill="#000000" fill-rule="nonzero" opacity="0.1"></path>
            <path d="M219.56,535.92 C219.94,535.53 229.33,535.15 231.65,529.92 C233.97,524.69 219.56,535.92 219.56,535.92 Z" id="Path" fill="#000000" fill-rule="nonzero" opacity="0.1"></path>
            <g id="Group" opacity="0.1" transform="translate(202.000000, 392.000000)" fill="#000000" fill-rule="nonzero">
                <path d="M6.86,49.08 C7.09093545,49.3524636 7.26440961,49.6687988 7.37,50.01 C7.75306056,48.8274644 7.56459147,47.5340491 6.86,46.51 C6.4,45.98 5.73,45.67 5.31,45.11 C5.31,45.11 5.26,45.02 5.23,44.97 C4.757574,45.8196263 4.78827791,46.8597212 5.31,47.68 C5.78,48.24 6.4,48.56 6.86,49.08 Z" id="Path"></path>
                <path d="M19.95,15.77 C19.95,14.77 19.95,13.77 19.95,12.85 C19.77,9.35 19.12,5.76 18.95,2.25 C18.74,6.55 19.7,11.06 19.95,15.42 C19.95,15.52 19.94,15.63 19.95,15.77 Z" id="Path"></path>
                <path d="M60.03,58.71 C57.65,61.5 55.78,53.47 55.37,50.3 C55.3051247,50.8508904 55.275065,51.4053247 55.28,51.96 C55.34,53.96 57.36,64.41 60.03,61.28 C61.84,59.16 62.03,55.55 61.91,52.22 C61.78,54.77 61.38,57.13 60.03,58.71 Z" id="Path"></path>
                <path d="M57.55,29.94 C57.7534654,31.2848314 57.8770156,32.6405435 57.92,34 C58.0068534,31.7799468 57.8829654,29.5566597 57.55,27.36 C57.42,26.49 57.25,25.61 57.17,24.73 C54.7,29.35 52.41,34.29 47.73,36.32 C44.1,37.89 39.87,37.27 36.14,38.55 C35.4238793,38.7458287 34.7763889,39.137093 34.27,39.68 C33.7074495,40.517715 33.3825886,41.4922976 33.33,42.5 C32.19,49.26 27.95,55.13 22.96,59.83 C20.0161038,63.170236 15.6674965,64.9237665 11.23,64.56 C8.42550527,64.5619446 5.62464926,64.3580636 2.85,63.95 C2.41977011,63.8836184 1.99753544,63.7730331 1.59,63.62 C1.2,64.06 0.79,64.48 0.37,64.89 C0.51,65.95 1.8,66.36 2.85,66.52 C5.62411661,66.9328963 8.42533246,67.1368034 11.23,67.13 C15.6674965,67.4937665 20.0161038,65.740236 22.96,62.4 C27.96,57.7 32.19,51.83 33.33,45.07 C33.3840666,44.0625778 33.7087999,43.0883777 34.27,42.25 C34.7802776,41.7119037 35.4263298,41.3215085 36.14,41.12 C39.87,39.84 44.14,40.47 47.73,38.89 C52.41,36.89 54.73,31.89 57.17,27.31 C57.25,28.18 57.42,29.06 57.55,29.94 Z" id="Path"></path>
                <path d="M87.57,7.59 C87.28,8.89 86.91,10.59 85.8,11.47 C83.92,12.93 83.54,11.27 82.8,9.76 C80.91,5.82 76.05,7.76 72.49,9.63 L70.58,12.08 C69.7130255,13.0967757 68.9834447,14.2230871 68.41,15.43 C68.043816,16.4089392 67.7431523,17.4111513 67.51,18.43 C67.01,20.17 66.29,21.83 65.64,23.52 C63.0548643,30.3068285 61.7265524,37.5074987 61.72,44.77 C61.72,45.1 61.72,45.46 61.72,45.83 C61.8980981,39.0795298 63.2201913,32.4082002 65.63,26.1 C66.28,24.41 67,22.74 67.5,21 C67.7331523,19.9811513 68.033816,18.9789392 68.4,18 C68.9734447,16.7930871 69.7030255,15.6667757 70.57,14.65 L72.48,12.2 C76.04,10.31 80.9,8.39 82.79,12.33 C83.52,13.84 83.9,15.51 85.79,14.04 C86.9,13.17 87.27,11.46 87.56,10.16 C88.3140077,7.14696678 88.6504871,4.04462701 88.56,0.94 C88.3997372,3.17863327 88.0687752,5.40176181 87.57,7.59 L87.57,7.59 Z" id="Path"></path>
            </g>
            <path d="M312.96,496.95 L313.49,497.31 C313.011056,496.991656 312.681993,496.492394 312.578288,495.926731 C312.474583,495.361067 312.605135,494.777542 312.94,494.31 L336.78,459.77 C337.097739,459.304868 337.588271,458.986096 338.142363,458.884669 C338.696455,458.783242 339.2681,458.907582 339.73,459.23 L339.2,458.86 C340.747993,459.929425 341.137314,462.050551 340.07,463.6 L317.7,496.07 C316.630519,497.616415 314.513277,498.00949 312.96,496.95 L312.96,496.95 Z" id="Path" fill="#464353" fill-rule="nonzero"></path>
            <path d="M326.445305,454.554411 L326.935305,454.554411 L326.935305,500.814411 L326.445305,500.814411 C325.484329,500.814411 324.705305,500.035387 324.705305,499.074411 L324.705305,456.304411 C324.705305,455.343436 325.484329,454.564411 326.445305,454.564411 L326.445305,454.554411 Z" id="Path" fill="#9F9EFF" fill-rule="nonzero" transform="translate(325.820305, 477.684411) rotate(34.560000) translate(-325.820305, -477.684411) "></path>
            <rect id="Rectangle" fill="#464353" fill-rule="nonzero" transform="translate(335.401447, 465.723516) rotate(34.560000) translate(-335.401447, -465.723516) " x="335.186447" y="463.838516" width="1" height="3.77" rx="0.17"></rect>
            <g id="no-wifi" transform="translate(470.000000, 203.000000)">
                <g id="Group-2" transform="translate(0.000000, 69.000000)" fill="#47B75B" fill-rule="nonzero">
                    <ellipse id="Oval" cx="158" cy="255.5" rx="39" ry="44.5"></ellipse>
                    <path d="M277.135942,124 C275.722489,124 274.335508,123.617506 273.122245,122.894146 C195.653782,76.8538985 120.333448,76.8538985 42.864985,122.894146 C39.1386038,125.098982 34.3262348,123.878188 32.1084574,120.16545 C29.89068,116.452711 31.1048256,111.649787 34.8222957,109.430034 C116.553793,60.8566553 199.433502,60.8566553 281.165021,109.430034 C284.203276,111.236468 285.656971,114.845334 284.716427,118.246567 C283.775883,121.647801 280.672985,124.002849 277.135985,124 L277.135942,124 Z" id="Path"></path>
                    <path d="M247.151519,189 C245.740764,189.000447 244.35633,188.613574 243.145794,187.880618 C185.174194,152.93835 128.813084,152.93835 70.8414828,187.880618 C67.1224828,190.112425 62.3196462,188.876698 60.1062618,185.118542 C57.8928774,181.360386 59.104618,176.498708 62.8147245,174.251801 C125.308897,136.582733 188.678466,136.582733 251.172617,174.251801 C254.204854,176.080332 255.655669,179.733346 254.716989,183.176186 C253.778308,186.619026 250.681556,189.002884 247.151562,189 L247.151519,189 Z" id="Path"></path>
                    <path d="M301.136513,50.9932482 C299.722999,50.9937126 298.335851,50.611364 297.122946,49.8869622 C219.817591,3.92304213 89.1955622,3.92304213 11.8902077,49.8869622 C9.47892243,51.3274254 6.48026832,51.3726638 4.02645635,50.0055967 C1.57264438,48.6385296 0.03750962,46.0674279 0,43.2630702 C-0.0361545085,40.4587125 1.43092744,37.8483392 3.84799283,36.4175567 C85.5132059,-12.1391856 223.499926,-12.1391856 305.165247,36.4175567 C308.203323,38.2247005 309.656932,41.8349858 308.716444,45.2375562 C307.775955,48.6401266 304.67324,50.9961006 301.136449,50.9932482 L301.136513,50.9932482 Z" id="Path"></path>
                </g>
                <line x1="303.95155" y1="1.80764935e-15" x2="5" y2="400.784195" id="Line" stroke="#E02020" stroke-width="12" stroke-linecap="round"></line>
            </g>
        </g>
    </g>
</svg>