<?xml version="1.0" encoding="UTF-8"?>
<svg width="962px" height="551px" viewBox="0 0 962 551" version="1.1" xmlns="http://www.w3.org/2000/svg" xmlns:xlink="http://www.w3.org/1999/xlink">
    <!-- Generator: Sketch 61.2 (89653) - https://sketch.com -->
    <title>undraw_shared_workspace_hwky</title>
    <desc>Created with Sketch.</desc>
    <g id="Page-1" stroke="none" stroke-width="1" fill="none" fill-rule="evenodd">
        <g id="undraw_shared_workspace_hwky">
            <g id="the-matrix" transform="translate(33.000000, 0.000000)" fill-rule="nonzero">
                <rect id="Rectangle" fill="#3F3D56" x="0" y="0" width="875" height="470.67901"></rect>
                <rect id="Rectangle" fill="#47B75B" x="158.17901" y="66.35802" width="7.71605" height="12.34568"></rect>
                <rect id="Rectangle" fill="#47B75B" x="184.41358" y="63.2716" width="7.71605" height="12.34568"></rect>
                <rect id="Rectangle" fill="#47B75B" x="198.30247" y="63.2716" width="7.71605" height="12.34568"></rect>
                <rect id="Rectangle" fill="#47B75B" x="198.30247" y="100.30864" width="7.71605" height="12.34568"></rect>
                <rect id="Rectangle" fill="#47B75B" x="213.73457" y="81.79012" width="7.71605" height="12.34568"></rect>
                <rect id="Rectangle" fill="#47B75B" x="213.73457" y="101.85185" width="7.71605" height="12.34568"></rect>
                <rect id="Rectangle" fill="#47B75B" x="198.30247" y="140.4321" width="7.71605" height="12.34568"></rect>
                <rect id="Rectangle" fill="#47B75B" x="213.73457" y="160.49383" width="7.71605" height="12.34568"></rect>
                <rect id="Rectangle" fill="#47B75B" x="198.30247" y="236.11111" width="7.71605" height="12.34568"></rect>
                <rect id="Rectangle" fill="#47B75B" x="184.41358" y="160.49383" width="7.71605" height="12.34568"></rect>
                <rect id="Rectangle" fill="#47B75B" x="158.17901" y="86.41975" width="7.71605" height="12.34568"></rect>
                <rect id="Rectangle" fill="#47B75B" x="158.17901" y="279.32099" width="7.71605" height="12.34568"></rect>
                <rect id="Rectangle" fill="#47B75B" x="158.17901" y="319.44444" width="7.71605" height="12.34568"></rect>
                <rect id="Rectangle" fill="#47B75B" x="158.17901" y="339.50617" width="7.71605" height="12.34568"></rect>
                <rect id="Rectangle" fill="#47B75B" x="155.09259" y="108.02469" width="10.80247" height="1.54321"></rect>
                <rect id="Rectangle" fill="#47B75B" x="196.75926" y="126.54321" width="10.80247" height="1.54321"></rect>
                <rect id="Rectangle" fill="#47B75B" x="155.09259" y="206.79012" width="10.80247" height="1.54321"></rect>
                <rect id="Rectangle" fill="#47B75B" x="155.09259" y="223.76543" width="10.80247" height="1.54321"></rect>
                <rect id="Rectangle" fill="#47B75B" x="196.75926" y="322.53086" width="10.80247" height="1.54321"></rect>
                <rect id="Rectangle" fill="#47B75B" x="184.41358" y="359.5679" width="10.80247" height="1.54321"></rect>
                <polygon id="Path" fill="#47B75B" points="158.179 121.914 158.179 125 161.265 125 161.265 131.173 158.179 131.173 158.179 134.259 165.895 134.259 165.895 121.914"></polygon>
                <polygon id="Path" fill="#47B75B" points="184.414 100.309 184.414 103.395 187.5 103.395 187.5 109.568 184.414 109.568 184.414 112.654 192.13 112.654 192.13 100.309"></polygon>
                <polygon id="Path" fill="#47B75B" points="213.735 120.37 213.735 123.457 216.821 123.457 216.821 129.63 213.735 129.63 213.735 132.716 221.451 132.716 221.451 120.37"></polygon>
                <polygon id="Path" fill="#47B75B" points="213.735 180.556 213.735 183.642 216.821 183.642 216.821 189.815 213.735 189.815 213.735 192.901 221.451 192.901 221.451 180.556"></polygon>
                <polygon id="Path" fill="#47B75B" points="213.735 200.617 213.735 203.704 216.821 203.704 216.821 209.877 213.735 209.877 213.735 212.963 221.451 212.963 221.451 200.617"></polygon>
                <polygon id="Path" fill="#47B75B" points="213.735 138.889 213.735 141.975 216.821 141.975 216.821 148.148 213.735 148.148 213.735 151.235 221.451 151.235 221.451 138.889"></polygon>
                <polygon id="Path" fill="#47B75B" points="198.302 81.79 198.302 84.877 201.389 84.877 201.389 91.049 198.302 91.049 198.302 94.136 206.019 94.136 206.019 81.79"></polygon>
                <rect id="Rectangle" fill="#47B75B" x="198.30247" y="180.55556" width="7.71605" height="12.34568"></rect>
                <rect id="Rectangle" fill="#47B75B" x="198.30247" y="217.59259" width="7.71605" height="12.34568"></rect>
                <polygon id="Path" fill="#47B75B" points="198.302 199.074 198.302 202.16 201.389 202.16 201.389 208.333 198.302 208.333 198.302 211.42 206.019 211.42 206.019 199.074"></polygon>
                <polygon id="Path" fill="#47B75B" points="184.414 120.37 184.414 123.457 187.5 123.457 187.5 129.63 184.414 129.63 184.414 132.716 192.13 132.716 192.13 120.37"></polygon>
                <polygon id="Path" fill="#47B75B" points="184.414 140.432 184.414 143.519 187.5 143.519 187.5 149.691 184.414 149.691 184.414 152.778 192.13 152.778 192.13 140.432"></polygon>
                <rect id="Rectangle" fill="#47B75B" x="184.41358" y="200.61728" width="7.71605" height="12.34568"></rect>
                <polygon id="Path" fill="#47B75B" points="184.414 180.556 184.414 183.642 187.5 183.642 187.5 189.815 184.414 189.815 184.414 192.901 192.13 192.901 192.13 180.556"></polygon>
                <rect id="Rectangle" fill="#47B75B" x="184.41358" y="240.74074" width="7.71605" height="12.34568"></rect>
                <polygon id="Path" fill="#47B75B" points="184.414 220.679 184.414 223.765 187.5 223.765 187.5 229.938 184.414 229.938 184.414 233.025 192.13 233.025 192.13 220.679"></polygon>
                <rect id="Rectangle" fill="#47B75B" x="184.41358" y="280.8642" width="7.71605" height="12.34568"></rect>
                <rect id="Rectangle" fill="#47B75B" x="198.30247" y="277.77778" width="7.71605" height="12.34568"></rect>
                <polygon id="Path" fill="#47B75B" points="184.414 260.802 184.414 263.889 187.5 263.889 187.5 270.062 184.414 270.062 184.414 273.148 192.13 273.148 192.13 260.802"></polygon>
                <polygon id="Path" fill="#47B75B" points="213.735 260.802 213.735 263.889 216.821 263.889 216.821 270.062 213.735 270.062 213.735 273.148 221.451 273.148 221.451 260.802"></polygon>
                <rect id="Rectangle" fill="#47B75B" x="292.43827" y="81.79012" width="7.71605" height="12.34568"></rect>
                <rect id="Rectangle" fill="#47B75B" x="292.43827" y="101.85185" width="7.71605" height="12.34568"></rect>
                <rect id="Rectangle" fill="#47B75B" x="292.43827" y="160.49383" width="7.71605" height="12.34568"></rect>
                <polygon id="Path" fill="#47B75B" points="292.438 120.37 292.438 123.457 295.525 123.457 295.525 129.63 292.438 129.63 292.438 132.716 300.154 132.716 300.154 120.37"></polygon>
                <polygon id="Path" fill="#47B75B" points="292.438 180.556 292.438 183.642 295.525 183.642 295.525 189.815 292.438 189.815 292.438 192.901 300.154 192.901 300.154 180.556"></polygon>
                <polygon id="Path" fill="#47B75B" points="292.438 200.617 292.438 203.704 295.525 203.704 295.525 209.877 292.438 209.877 292.438 212.963 300.154 212.963 300.154 200.617"></polygon>
                <polygon id="Path" fill="#47B75B" points="292.438 138.889 292.438 141.975 295.525 141.975 295.525 148.148 292.438 148.148 292.438 151.235 300.154 151.235 300.154 138.889"></polygon>
                <polygon id="Path" fill="#47B75B" points="292.438 260.802 292.438 263.889 295.525 263.889 295.525 270.062 292.438 270.062 292.438 273.148 300.154 273.148 300.154 260.802"></polygon>
                <rect id="Rectangle" fill="#47B75B" x="184.41358" y="320.98765" width="7.71605" height="12.34568"></rect>
                <rect id="Rectangle" fill="#47B75B" x="198.30247" y="297.83951" width="7.71605" height="12.34568"></rect>
                <rect id="Rectangle" fill="#47B75B" x="184.41358" y="373.45679" width="7.71605" height="12.34568"></rect>
                <rect id="Rectangle" fill="#47B75B" x="198.30247" y="336.41975" width="7.71605" height="12.34568"></rect>
                <polygon id="Path" fill="#47B75B" points="184.414 300.926 184.414 304.012 187.5 304.012 187.5 310.185 184.414 310.185 184.414 313.272 192.13 313.272 192.13 300.926"></polygon>
                <polygon id="Path" fill="#47B75B" points="184.414 395.062 184.414 398.148 187.5 398.148 187.5 404.321 184.414 404.321 184.414 407.407 192.13 407.407 192.13 395.062"></polygon>
                <rect id="Rectangle" fill="#47B75B" x="269.29012" y="63.2716" width="7.71605" height="12.34568"></rect>
                <rect id="Rectangle" fill="#47B75B" x="269.29012" y="160.49383" width="7.71605" height="12.34568"></rect>
                <rect id="Rectangle" fill="#47B75B" x="269.29012" y="359.5679" width="10.80247" height="1.54321"></rect>
                <polygon id="Path" fill="#47B75B" points="269.29 100.309 269.29 103.395 272.377 103.395 272.377 109.568 269.29 109.568 269.29 112.654 277.006 112.654 277.006 100.309"></polygon>
                <polygon id="Path" fill="#47B75B" points="269.29 120.37 269.29 123.457 272.377 123.457 272.377 129.63 269.29 129.63 269.29 132.716 277.006 132.716 277.006 120.37"></polygon>
                <polygon id="Path" fill="#47B75B" points="269.29 140.432 269.29 143.519 272.377 143.519 272.377 149.691 269.29 149.691 269.29 152.778 277.006 152.778 277.006 140.432"></polygon>
                <rect id="Rectangle" fill="#47B75B" x="269.29012" y="200.61728" width="7.71605" height="12.34568"></rect>
                <polygon id="Path" fill="#47B75B" points="269.29 180.556 269.29 183.642 272.377 183.642 272.377 189.815 269.29 189.815 269.29 192.901 277.006 192.901 277.006 180.556"></polygon>
                <rect id="Rectangle" fill="#47B75B" x="269.29012" y="240.74074" width="7.71605" height="12.34568"></rect>
                <polygon id="Path" fill="#47B75B" points="269.29 220.679 269.29 223.765 272.377 223.765 272.377 229.938 269.29 229.938 269.29 233.025 277.006 233.025 277.006 220.679"></polygon>
                <rect id="Rectangle" fill="#47B75B" x="269.29012" y="280.8642" width="7.71605" height="12.34568"></rect>
                <polygon id="Path" fill="#47B75B" points="269.29 260.802 269.29 263.889 272.377 263.889 272.377 270.062 269.29 270.062 269.29 273.148 277.006 273.148 277.006 260.802"></polygon>
                <rect id="Rectangle" fill="#47B75B" x="269.29012" y="320.98765" width="7.71605" height="12.34568"></rect>
                <rect id="Rectangle" fill="#47B75B" x="269.29012" y="373.45679" width="7.71605" height="12.34568"></rect>
                <polygon id="Path" fill="#47B75B" points="269.29 300.926 269.29 304.012 272.377 304.012 272.377 310.185 269.29 310.185 269.29 313.272 277.006 313.272 277.006 300.926"></polygon>
                <polygon id="Path" fill="#47B75B" points="269.29 395.062 269.29 398.148 272.377 398.148 272.377 404.321 269.29 404.321 269.29 407.407 277.006 407.407 277.006 395.062"></polygon>
                <rect id="Rectangle" fill="#47B75B" x="306.32716" y="63.2716" width="7.71605" height="12.34568"></rect>
                <rect id="Rectangle" fill="#47B75B" x="306.32716" y="160.49383" width="7.71605" height="12.34568"></rect>
                <rect id="Rectangle" fill="#47B75B" x="306.32716" y="359.5679" width="10.80247" height="1.54321"></rect>
                <polygon id="Path" fill="#47B75B" points="306.327 100.309 306.327 103.395 309.414 103.395 309.414 109.568 306.327 109.568 306.327 112.654 314.043 112.654 314.043 100.309"></polygon>
                <polygon id="Path" fill="#47B75B" points="306.327 120.37 306.327 123.457 309.414 123.457 309.414 129.63 306.327 129.63 306.327 132.716 314.043 132.716 314.043 120.37"></polygon>
                <polygon id="Path" fill="#47B75B" points="306.327 140.432 306.327 143.519 309.414 143.519 309.414 149.691 306.327 149.691 306.327 152.778 314.043 152.778 314.043 140.432"></polygon>
                <rect id="Rectangle" fill="#47B75B" x="306.32716" y="200.61728" width="7.71605" height="12.34568"></rect>
                <polygon id="Path" fill="#47B75B" points="306.327 180.556 306.327 183.642 309.414 183.642 309.414 189.815 306.327 189.815 306.327 192.901 314.043 192.901 314.043 180.556"></polygon>
                <rect id="Rectangle" fill="#47B75B" x="306.32716" y="240.74074" width="7.71605" height="12.34568"></rect>
                <polygon id="Path" fill="#47B75B" points="306.327 220.679 306.327 223.765 309.414 223.765 309.414 229.938 306.327 229.938 306.327 233.025 314.043 233.025 314.043 220.679"></polygon>
                <rect id="Rectangle" fill="#47B75B" x="306.32716" y="280.8642" width="7.71605" height="12.34568"></rect>
                <polygon id="Path" fill="#47B75B" points="306.327 260.802 306.327 263.889 309.414 263.889 309.414 270.062 306.327 270.062 306.327 273.148 314.043 273.148 314.043 260.802"></polygon>
                <rect id="Rectangle" fill="#47B75B" x="306.32716" y="320.98765" width="7.71605" height="12.34568"></rect>
                <rect id="Rectangle" fill="#47B75B" x="306.32716" y="373.45679" width="7.71605" height="12.34568"></rect>
                <polygon id="Path" fill="#47B75B" points="306.327 300.926 306.327 304.012 309.414 304.012 309.414 310.185 306.327 310.185 306.327 313.272 314.043 313.272 314.043 300.926"></polygon>
                <polygon id="Path" fill="#47B75B" points="306.327 395.062 306.327 398.148 309.414 398.148 309.414 404.321 306.327 404.321 306.327 407.407 314.043 407.407 314.043 395.062"></polygon>
                <polygon id="Path" fill="#47B75B" points="198.302 373.457 198.302 376.543 201.389 376.543 201.389 382.716 198.302 382.716 198.302 385.802 206.019 385.802 206.019 373.457"></polygon>
                <polygon id="Path" fill="#47B75B" points="198.302 393.519 198.302 396.605 201.389 396.605 201.389 402.778 198.302 402.778 198.302 405.864 206.019 405.864 206.019 393.519"></polygon>
                <polygon id="Path" fill="#47B75B" points="158.179 160.494 158.179 163.58 161.265 163.58 161.265 169.753 158.179 169.753 158.179 172.84 165.895 172.84 165.895 160.494"></polygon>
                <polygon id="Path" fill="#47B75B" points="158.179 239.198 158.179 242.284 161.265 242.284 161.265 248.457 158.179 248.457 158.179 251.543 165.895 251.543 165.895 239.198"></polygon>
                <polygon id="Path" fill="#47B75B" points="158.179 259.259 158.179 262.346 161.265 262.346 161.265 268.519 158.179 268.519 158.179 271.605 165.895 271.605 165.895 259.259"></polygon>
                <polygon id="Path" fill="#47B75B" points="158.179 299.383 158.179 302.469 161.265 302.469 161.265 308.642 158.179 308.642 158.179 311.728 165.895 311.728 165.895 299.383"></polygon>
                <polygon id="Path" fill="#47B75B" points="158.179 356.481 158.179 359.568 161.265 359.568 161.265 365.741 158.179 365.741 158.179 368.827 165.895 368.827 165.895 356.481"></polygon>
                <polygon id="Path" fill="#47B75B" points="158.179 373.457 158.179 376.543 161.265 376.543 161.265 382.716 158.179 382.716 158.179 385.802 165.895 385.802 165.895 373.457"></polygon>
                <rect id="Rectangle" fill="#47B75B" x="238.42593" y="66.35802" width="7.71605" height="12.34568"></rect>
                <rect id="Rectangle" fill="#47B75B" x="238.42593" y="86.41975" width="7.71605" height="12.34568"></rect>
                <rect id="Rectangle" fill="#47B75B" x="235.33951" y="108.02469" width="10.80247" height="1.54321"></rect>
                <rect id="Rectangle" fill="#47B75B" x="235.33951" y="206.79012" width="10.80247" height="1.54321"></rect>
                <rect id="Rectangle" fill="#47B75B" x="235.33951" y="223.76543" width="10.80247" height="1.54321"></rect>
                <polygon id="Path" fill="#47B75B" points="238.426 121.914 238.426 125 241.512 125 241.512 131.173 238.426 131.173 238.426 134.259 246.142 134.259 246.142 121.914"></polygon>
                <polygon id="Path" fill="#47B75B" points="238.426 160.494 238.426 163.58 241.512 163.58 241.512 169.753 238.426 169.753 238.426 172.84 246.142 172.84 246.142 160.494"></polygon>
                <polygon id="Path" fill="#47B75B" points="238.426 239.198 238.426 242.284 241.512 242.284 241.512 248.457 238.426 248.457 238.426 251.543 246.142 251.543 246.142 239.198"></polygon>
                <rect id="Rectangle" fill="#47B75B" x="326.38889" y="200.61728" width="7.71605" height="12.34568"></rect>
                <rect id="Rectangle" fill="#47B75B" x="326.38889" y="220.67901" width="7.71605" height="12.34568"></rect>
                <rect id="Rectangle" fill="#47B75B" x="323.30247" y="242.28395" width="10.80247" height="1.54321"></rect>
                <rect id="Rectangle" fill="#47B75B" x="323.30247" y="341.04938" width="10.80247" height="1.54321"></rect>
                <rect id="Rectangle" fill="#47B75B" x="323.30247" y="358.02469" width="10.80247" height="1.54321"></rect>
                <polygon id="Path" fill="#47B75B" points="326.389 256.173 326.389 259.259 329.475 259.259 329.475 265.432 326.389 265.432 326.389 268.519 334.105 268.519 334.105 256.173"></polygon>
                <polygon id="Path" fill="#47B75B" points="326.389 294.753 326.389 297.84 329.475 297.84 329.475 304.012 326.389 304.012 326.389 307.099 334.105 307.099 334.105 294.753"></polygon>
                <polygon id="Path" fill="#47B75B" points="326.389 373.457 326.389 376.543 329.475 376.543 329.475 382.716 326.389 382.716 326.389 385.802 334.105 385.802 334.105 373.457"></polygon>
                <rect id="Rectangle" fill="#47B75B" x="351.08025" y="66.35802" width="7.71605" height="12.34568"></rect>
                <rect id="Rectangle" fill="#47B75B" x="377.31481" y="63.2716" width="7.71605" height="12.34568"></rect>
                <rect id="Rectangle" fill="#47B75B" x="391.2037" y="63.2716" width="7.71605" height="12.34568"></rect>
                <rect id="Rectangle" fill="#47B75B" x="391.2037" y="100.30864" width="7.71605" height="12.34568"></rect>
                <rect id="Rectangle" fill="#47B75B" x="406.6358" y="81.79012" width="7.71605" height="12.34568"></rect>
                <rect id="Rectangle" fill="#47B75B" x="406.6358" y="101.85185" width="7.71605" height="12.34568"></rect>
                <rect id="Rectangle" fill="#47B75B" x="391.2037" y="140.4321" width="7.71605" height="12.34568"></rect>
                <rect id="Rectangle" fill="#47B75B" x="406.6358" y="160.49383" width="7.71605" height="12.34568"></rect>
                <rect id="Rectangle" fill="#47B75B" x="391.2037" y="236.11111" width="7.71605" height="12.34568"></rect>
                <rect id="Rectangle" fill="#47B75B" x="377.31481" y="160.49383" width="7.71605" height="12.34568"></rect>
                <rect id="Rectangle" fill="#47B75B" x="351.08025" y="86.41975" width="7.71605" height="12.34568"></rect>
                <rect id="Rectangle" fill="#47B75B" x="351.08025" y="279.32099" width="7.71605" height="12.34568"></rect>
                <rect id="Rectangle" fill="#47B75B" x="351.08025" y="319.44444" width="7.71605" height="12.34568"></rect>
                <rect id="Rectangle" fill="#47B75B" x="351.08025" y="339.50617" width="7.71605" height="12.34568"></rect>
                <rect id="Rectangle" fill="#47B75B" x="347.99383" y="108.02469" width="10.80247" height="1.54321"></rect>
                <rect id="Rectangle" fill="#47B75B" x="389.66049" y="126.54321" width="10.80247" height="1.54321"></rect>
                <rect id="Rectangle" fill="#47B75B" x="347.99383" y="206.79012" width="10.80247" height="1.54321"></rect>
                <rect id="Rectangle" fill="#47B75B" x="347.99383" y="223.76543" width="10.80247" height="1.54321"></rect>
                <rect id="Rectangle" fill="#47B75B" x="389.66049" y="322.53086" width="10.80247" height="1.54321"></rect>
                <rect id="Rectangle" fill="#47B75B" x="377.31481" y="359.5679" width="10.80247" height="1.54321"></rect>
                <polygon id="Path" fill="#47B75B" points="351.08 121.914 351.08 125 354.167 125 354.167 131.173 351.08 131.173 351.08 134.259 358.796 134.259 358.796 121.914"></polygon>
                <polygon id="Path" fill="#47B75B" points="377.315 100.309 377.315 103.395 380.401 103.395 380.401 109.568 377.315 109.568 377.315 112.654 385.031 112.654 385.031 100.309"></polygon>
                <polygon id="Path" fill="#47B75B" points="406.636 120.37 406.636 123.457 409.722 123.457 409.722 129.63 406.636 129.63 406.636 132.716 414.352 132.716 414.352 120.37"></polygon>
                <polygon id="Path" fill="#47B75B" points="406.636 180.556 406.636 183.642 409.722 183.642 409.722 189.815 406.636 189.815 406.636 192.901 414.352 192.901 414.352 180.556"></polygon>
                <polygon id="Path" fill="#47B75B" points="406.636 200.617 406.636 203.704 409.722 203.704 409.722 209.877 406.636 209.877 406.636 212.963 414.352 212.963 414.352 200.617"></polygon>
                <polygon id="Path" fill="#47B75B" points="406.636 138.889 406.636 141.975 409.722 141.975 409.722 148.148 406.636 148.148 406.636 151.235 414.352 151.235 414.352 138.889"></polygon>
                <polygon id="Path" fill="#47B75B" points="391.204 81.79 391.204 84.877 394.29 84.877 394.29 91.049 391.204 91.049 391.204 94.136 398.92 94.136 398.92 81.79"></polygon>
                <rect id="Rectangle" fill="#47B75B" x="391.2037" y="180.55556" width="7.71605" height="12.34568"></rect>
                <rect id="Rectangle" fill="#47B75B" x="391.2037" y="217.59259" width="7.71605" height="12.34568"></rect>
                <polygon id="Path" fill="#47B75B" points="391.204 199.074 391.204 202.16 394.29 202.16 394.29 208.333 391.204 208.333 391.204 211.42 398.92 211.42 398.92 199.074"></polygon>
                <polygon id="Path" fill="#47B75B" points="377.315 120.37 377.315 123.457 380.401 123.457 380.401 129.63 377.315 129.63 377.315 132.716 385.031 132.716 385.031 120.37"></polygon>
                <polygon id="Path" fill="#47B75B" points="377.315 140.432 377.315 143.519 380.401 143.519 380.401 149.691 377.315 149.691 377.315 152.778 385.031 152.778 385.031 140.432"></polygon>
                <rect id="Rectangle" fill="#47B75B" x="377.31481" y="200.61728" width="7.71605" height="12.34568"></rect>
                <polygon id="Path" fill="#47B75B" points="377.315 180.556 377.315 183.642 380.401 183.642 380.401 189.815 377.315 189.815 377.315 192.901 385.031 192.901 385.031 180.556"></polygon>
                <rect id="Rectangle" fill="#47B75B" x="377.31481" y="240.74074" width="7.71605" height="12.34568"></rect>
                <polygon id="Path" fill="#47B75B" points="377.315 220.679 377.315 223.765 380.401 223.765 380.401 229.938 377.315 229.938 377.315 233.025 385.031 233.025 385.031 220.679"></polygon>
                <rect id="Rectangle" fill="#47B75B" x="377.31481" y="280.8642" width="7.71605" height="12.34568"></rect>
                <rect id="Rectangle" fill="#47B75B" x="391.2037" y="277.77778" width="7.71605" height="12.34568"></rect>
                <polygon id="Path" fill="#47B75B" points="377.315 260.802 377.315 263.889 380.401 263.889 380.401 270.062 377.315 270.062 377.315 273.148 385.031 273.148 385.031 260.802"></polygon>
                <polygon id="Path" fill="#47B75B" points="406.636 260.802 406.636 263.889 409.722 263.889 409.722 270.062 406.636 270.062 406.636 273.148 414.352 273.148 414.352 260.802"></polygon>
                <rect id="Rectangle" fill="#47B75B" x="485.33951" y="81.79012" width="7.71605" height="12.34568"></rect>
                <rect id="Rectangle" fill="#47B75B" x="485.33951" y="101.85185" width="7.71605" height="12.34568"></rect>
                <rect id="Rectangle" fill="#47B75B" x="485.33951" y="160.49383" width="7.71605" height="12.34568"></rect>
                <polygon id="Path" fill="#47B75B" points="485.34 120.37 485.34 123.457 488.426 123.457 488.426 129.63 485.34 129.63 485.34 132.716 493.056 132.716 493.056 120.37"></polygon>
                <polygon id="Path" fill="#47B75B" points="485.34 180.556 485.34 183.642 488.426 183.642 488.426 189.815 485.34 189.815 485.34 192.901 493.056 192.901 493.056 180.556"></polygon>
                <polygon id="Path" fill="#47B75B" points="485.34 200.617 485.34 203.704 488.426 203.704 488.426 209.877 485.34 209.877 485.34 212.963 493.056 212.963 493.056 200.617"></polygon>
                <polygon id="Path" fill="#47B75B" points="485.34 138.889 485.34 141.975 488.426 141.975 488.426 148.148 485.34 148.148 485.34 151.235 493.056 151.235 493.056 138.889"></polygon>
                <polygon id="Path" fill="#47B75B" points="485.34 260.802 485.34 263.889 488.426 263.889 488.426 270.062 485.34 270.062 485.34 273.148 493.056 273.148 493.056 260.802"></polygon>
                <rect id="Rectangle" fill="#47B75B" x="377.31481" y="320.98765" width="7.71605" height="12.34568"></rect>
                <rect id="Rectangle" fill="#47B75B" x="391.2037" y="297.83951" width="7.71605" height="12.34568"></rect>
                <rect id="Rectangle" fill="#47B75B" x="377.31481" y="373.45679" width="7.71605" height="12.34568"></rect>
                <rect id="Rectangle" fill="#47B75B" x="391.2037" y="336.41975" width="7.71605" height="12.34568"></rect>
                <polygon id="Path" fill="#47B75B" points="377.315 300.926 377.315 304.012 380.401 304.012 380.401 310.185 377.315 310.185 377.315 313.272 385.031 313.272 385.031 300.926"></polygon>
                <polygon id="Path" fill="#47B75B" points="377.315 395.062 377.315 398.148 380.401 398.148 380.401 404.321 377.315 404.321 377.315 407.407 385.031 407.407 385.031 395.062"></polygon>
                <rect id="Rectangle" fill="#47B75B" x="462.19136" y="63.2716" width="7.71605" height="12.34568"></rect>
                <rect id="Rectangle" fill="#47B75B" x="462.19136" y="160.49383" width="7.71605" height="12.34568"></rect>
                <rect id="Rectangle" fill="#47B75B" x="462.19136" y="359.5679" width="10.80247" height="1.54321"></rect>
                <polygon id="Path" fill="#47B75B" points="462.191 100.309 462.191 103.395 465.278 103.395 465.278 109.568 462.191 109.568 462.191 112.654 469.907 112.654 469.907 100.309"></polygon>
                <polygon id="Path" fill="#47B75B" points="462.191 120.37 462.191 123.457 465.278 123.457 465.278 129.63 462.191 129.63 462.191 132.716 469.907 132.716 469.907 120.37"></polygon>
                <polygon id="Path" fill="#47B75B" points="462.191 140.432 462.191 143.519 465.278 143.519 465.278 149.691 462.191 149.691 462.191 152.778 469.907 152.778 469.907 140.432"></polygon>
                <rect id="Rectangle" fill="#47B75B" x="462.19136" y="200.61728" width="7.71605" height="12.34568"></rect>
                <polygon id="Path" fill="#47B75B" points="462.191 180.556 462.191 183.642 465.278 183.642 465.278 189.815 462.191 189.815 462.191 192.901 469.907 192.901 469.907 180.556"></polygon>
                <rect id="Rectangle" fill="#47B75B" x="462.19136" y="240.74074" width="7.71605" height="12.34568"></rect>
                <polygon id="Path" fill="#47B75B" points="462.191 220.679 462.191 223.765 465.278 223.765 465.278 229.938 462.191 229.938 462.191 233.025 469.907 233.025 469.907 220.679"></polygon>
                <rect id="Rectangle" fill="#47B75B" x="462.19136" y="280.8642" width="7.71605" height="12.34568"></rect>
                <polygon id="Path" fill="#47B75B" points="462.191 260.802 462.191 263.889 465.278 263.889 465.278 270.062 462.191 270.062 462.191 273.148 469.907 273.148 469.907 260.802"></polygon>
                <rect id="Rectangle" fill="#47B75B" x="462.19136" y="320.98765" width="7.71605" height="12.34568"></rect>
                <rect id="Rectangle" fill="#47B75B" x="462.19136" y="373.45679" width="7.71605" height="12.34568"></rect>
                <polygon id="Path" fill="#47B75B" points="462.191 300.926 462.191 304.012 465.278 304.012 465.278 310.185 462.191 310.185 462.191 313.272 469.907 313.272 469.907 300.926"></polygon>
                <polygon id="Path" fill="#47B75B" points="462.191 395.062 462.191 398.148 465.278 398.148 465.278 404.321 462.191 404.321 462.191 407.407 469.907 407.407 469.907 395.062"></polygon>
                <rect id="Rectangle" fill="#47B75B" x="499.2284" y="63.2716" width="7.71605" height="12.34568"></rect>
                <rect id="Rectangle" fill="#47B75B" x="499.2284" y="160.49383" width="7.71605" height="12.34568"></rect>
                <rect id="Rectangle" fill="#47B75B" x="499.2284" y="359.5679" width="10.80247" height="1.54321"></rect>
                <polygon id="Path" fill="#47B75B" points="499.228 100.309 499.228 103.395 502.315 103.395 502.315 109.568 499.228 109.568 499.228 112.654 506.944 112.654 506.944 100.309"></polygon>
                <polygon id="Path" fill="#47B75B" points="499.228 120.37 499.228 123.457 502.315 123.457 502.315 129.63 499.228 129.63 499.228 132.716 506.944 132.716 506.944 120.37"></polygon>
                <polygon id="Path" fill="#47B75B" points="499.228 140.432 499.228 143.519 502.315 143.519 502.315 149.691 499.228 149.691 499.228 152.778 506.944 152.778 506.944 140.432"></polygon>
                <rect id="Rectangle" fill="#47B75B" x="499.2284" y="200.61728" width="7.71605" height="12.34568"></rect>
                <polygon id="Path" fill="#47B75B" points="499.228 180.556 499.228 183.642 502.315 183.642 502.315 189.815 499.228 189.815 499.228 192.901 506.944 192.901 506.944 180.556"></polygon>
                <rect id="Rectangle" fill="#47B75B" x="499.2284" y="240.74074" width="7.71605" height="12.34568"></rect>
                <polygon id="Path" fill="#47B75B" points="499.228 220.679 499.228 223.765 502.315 223.765 502.315 229.938 499.228 229.938 499.228 233.025 506.944 233.025 506.944 220.679"></polygon>
                <rect id="Rectangle" fill="#47B75B" x="499.2284" y="280.8642" width="7.71605" height="12.34568"></rect>
                <polygon id="Path" fill="#47B75B" points="499.228 260.802 499.228 263.889 502.315 263.889 502.315 270.062 499.228 270.062 499.228 273.148 506.944 273.148 506.944 260.802"></polygon>
                <rect id="Rectangle" fill="#47B75B" x="499.2284" y="320.98765" width="7.71605" height="12.34568"></rect>
                <rect id="Rectangle" fill="#47B75B" x="499.2284" y="373.45679" width="7.71605" height="12.34568"></rect>
                <polygon id="Path" fill="#47B75B" points="499.228 300.926 499.228 304.012 502.315 304.012 502.315 310.185 499.228 310.185 499.228 313.272 506.944 313.272 506.944 300.926"></polygon>
                <polygon id="Path" fill="#47B75B" points="499.228 395.062 499.228 398.148 502.315 398.148 502.315 404.321 499.228 404.321 499.228 407.407 506.944 407.407 506.944 395.062"></polygon>
                <polygon id="Path" fill="#47B75B" points="391.204 373.457 391.204 376.543 394.29 376.543 394.29 382.716 391.204 382.716 391.204 385.802 398.92 385.802 398.92 373.457"></polygon>
                <polygon id="Path" fill="#47B75B" points="391.204 393.519 391.204 396.605 394.29 396.605 394.29 402.778 391.204 402.778 391.204 405.864 398.92 405.864 398.92 393.519"></polygon>
                <polygon id="Path" fill="#47B75B" points="351.08 160.494 351.08 163.58 354.167 163.58 354.167 169.753 351.08 169.753 351.08 172.84 358.796 172.84 358.796 160.494"></polygon>
                <polygon id="Path" fill="#E02020" points="351.08 239.198 351.08 242.284 354.167 242.284 354.167 248.457 351.08 248.457 351.08 251.543 358.796 251.543 358.796 239.198"></polygon>
                <polygon id="Path" fill="#E02020" points="351.08 259.259 351.08 262.346 354.167 262.346 354.167 268.519 351.08 268.519 351.08 271.605 358.796 271.605 358.796 259.259"></polygon>
                <polygon id="Path" fill="#E02020" points="351.08 299.383 351.08 302.469 354.167 302.469 354.167 308.642 351.08 308.642 351.08 311.728 358.796 311.728 358.796 299.383"></polygon>
                <polygon id="Path" fill="#E02020" points="351.08 356.481 351.08 359.568 354.167 359.568 354.167 365.741 351.08 365.741 351.08 368.827 358.796 368.827 358.796 356.481"></polygon>
                <polygon id="Path" fill="#E02020" points="351.08 373.457 351.08 376.543 354.167 376.543 354.167 382.716 351.08 382.716 351.08 385.802 358.796 385.802 358.796 373.457"></polygon>
                <rect id="Rectangle" fill="#E02020" x="431.32716" y="66.35802" width="7.71605" height="12.34568"></rect>
                <rect id="Rectangle" fill="#E02020" x="431.32716" y="86.41975" width="7.71605" height="12.34568"></rect>
                <rect id="Rectangle" fill="#47B75B" x="428.24074" y="108.02469" width="10.80247" height="1.54321"></rect>
                <rect id="Rectangle" fill="#47B75B" x="428.24074" y="206.79012" width="10.80247" height="1.54321"></rect>
                <rect id="Rectangle" fill="#47B75B" x="428.24074" y="223.76543" width="10.80247" height="1.54321"></rect>
                <polygon id="Path" fill="#47B75B" points="431.327 121.914 431.327 125 434.414 125 434.414 131.173 431.327 131.173 431.327 134.259 439.043 134.259 439.043 121.914"></polygon>
                <polygon id="Path" fill="#47B75B" points="431.327 160.494 431.327 163.58 434.414 163.58 434.414 169.753 431.327 169.753 431.327 172.84 439.043 172.84 439.043 160.494"></polygon>
                <polygon id="Path" fill="#47B75B" points="431.327 239.198 431.327 242.284 434.414 242.284 434.414 248.457 431.327 248.457 431.327 251.543 439.043 251.543 439.043 239.198"></polygon>
                <rect id="Rectangle" fill="#47B75B" x="519.29012" y="200.61728" width="7.71605" height="12.34568"></rect>
                <rect id="Rectangle" fill="#47B75B" x="519.29012" y="220.67901" width="7.71605" height="12.34568"></rect>
                <rect id="Rectangle" fill="#47B75B" x="516.2037" y="242.28395" width="10.80247" height="1.54321"></rect>
                <rect id="Rectangle" fill="#47B75B" x="516.2037" y="341.04938" width="10.80247" height="1.54321"></rect>
                <rect id="Rectangle" fill="#47B75B" x="516.2037" y="358.02469" width="10.80247" height="1.54321"></rect>
                <polygon id="Path" fill="#47B75B" points="519.29 256.173 519.29 259.259 522.377 259.259 522.377 265.432 519.29 265.432 519.29 268.519 527.006 268.519 527.006 256.173"></polygon>
                <polygon id="Path" fill="#47B75B" points="519.29 294.753 519.29 297.84 522.377 297.84 522.377 304.012 519.29 304.012 519.29 307.099 527.006 307.099 527.006 294.753"></polygon>
                <polygon id="Path" fill="#47B75B" points="519.29 373.457 519.29 376.543 522.377 376.543 522.377 382.716 519.29 382.716 519.29 385.802 527.006 385.802 527.006 373.457"></polygon>
                <rect id="Rectangle" fill="#47B75B" x="543.98148" y="66.35802" width="7.71605" height="12.34568"></rect>
                <rect id="Rectangle" fill="#47B75B" x="570.21605" y="63.2716" width="7.71605" height="12.34568"></rect>
                <rect id="Rectangle" fill="#47B75B" x="584.10494" y="63.2716" width="7.71605" height="12.34568"></rect>
                <rect id="Rectangle" fill="#47B75B" x="584.10494" y="100.30864" width="7.71605" height="12.34568"></rect>
                <rect id="Rectangle" fill="#47B75B" x="599.53704" y="81.79012" width="7.71605" height="12.34568"></rect>
                <rect id="Rectangle" fill="#47B75B" x="599.53704" y="101.85185" width="7.71605" height="12.34568"></rect>
                <rect id="Rectangle" fill="#47B75B" x="584.10494" y="140.4321" width="7.71605" height="12.34568"></rect>
                <rect id="Rectangle" fill="#47B75B" x="599.53704" y="160.49383" width="7.71605" height="12.34568"></rect>
                <rect id="Rectangle" fill="#47B75B" x="584.10494" y="236.11111" width="7.71605" height="12.34568"></rect>
                <rect id="Rectangle" fill="#47B75B" x="570.21605" y="160.49383" width="7.71605" height="12.34568"></rect>
                <rect id="Rectangle" fill="#47B75B" x="543.98148" y="86.41975" width="7.71605" height="12.34568"></rect>
                <rect id="Rectangle" fill="#47B75B" x="543.98148" y="279.32099" width="7.71605" height="12.34568"></rect>
                <rect id="Rectangle" fill="#47B75B" x="543.98148" y="319.44444" width="7.71605" height="12.34568"></rect>
                <rect id="Rectangle" fill="#47B75B" x="543.98148" y="339.50617" width="7.71605" height="12.34568"></rect>
                <rect id="Rectangle" fill="#47B75B" x="540.89506" y="108.02469" width="10.80247" height="1.54321"></rect>
                <rect id="Rectangle" fill="#47B75B" x="582.56173" y="126.54321" width="10.80247" height="1.54321"></rect>
                <rect id="Rectangle" fill="#47B75B" x="540.89506" y="206.79012" width="10.80247" height="1.54321"></rect>
                <rect id="Rectangle" fill="#47B75B" x="540.89506" y="223.76543" width="10.80247" height="1.54321"></rect>
                <rect id="Rectangle" fill="#47B75B" x="582.56173" y="322.53086" width="10.80247" height="1.54321"></rect>
                <rect id="Rectangle" fill="#47B75B" x="570.21605" y="359.5679" width="10.80247" height="1.54321"></rect>
                <polygon id="Path" fill="#47B75B" points="543.981 121.914 543.981 125 547.068 125 547.068 131.173 543.981 131.173 543.981 134.259 551.698 134.259 551.698 121.914"></polygon>
                <polygon id="Path" fill="#47B75B" points="570.216 100.309 570.216 103.395 573.302 103.395 573.302 109.568 570.216 109.568 570.216 112.654 577.932 112.654 577.932 100.309"></polygon>
                <polygon id="Path" fill="#47B75B" points="599.537 120.37 599.537 123.457 602.623 123.457 602.623 129.63 599.537 129.63 599.537 132.716 607.253 132.716 607.253 120.37"></polygon>
                <polygon id="Path" fill="#47B75B" points="599.537 180.556 599.537 183.642 602.623 183.642 602.623 189.815 599.537 189.815 599.537 192.901 607.253 192.901 607.253 180.556"></polygon>
                <polygon id="Path" fill="#47B75B" points="599.537 200.617 599.537 203.704 602.623 203.704 602.623 209.877 599.537 209.877 599.537 212.963 607.253 212.963 607.253 200.617"></polygon>
                <polygon id="Path" fill="#47B75B" points="599.537 138.889 599.537 141.975 602.623 141.975 602.623 148.148 599.537 148.148 599.537 151.235 607.253 151.235 607.253 138.889"></polygon>
                <polygon id="Path" fill="#47B75B" points="584.105 81.79 584.105 84.877 587.191 84.877 587.191 91.049 584.105 91.049 584.105 94.136 591.821 94.136 591.821 81.79"></polygon>
                <rect id="Rectangle" fill="#47B75B" x="584.10494" y="180.55556" width="7.71605" height="12.34568"></rect>
                <rect id="Rectangle" fill="#47B75B" x="584.10494" y="217.59259" width="7.71605" height="12.34568"></rect>
                <polygon id="Path" fill="#47B75B" points="584.105 199.074 584.105 202.16 587.191 202.16 587.191 208.333 584.105 208.333 584.105 211.42 591.821 211.42 591.821 199.074"></polygon>
                <polygon id="Path" fill="#47B75B" points="570.216 120.37 570.216 123.457 573.302 123.457 573.302 129.63 570.216 129.63 570.216 132.716 577.932 132.716 577.932 120.37"></polygon>
                <polygon id="Path" fill="#47B75B" points="570.216 140.432 570.216 143.519 573.302 143.519 573.302 149.691 570.216 149.691 570.216 152.778 577.932 152.778 577.932 140.432"></polygon>
                <rect id="Rectangle" fill="#47B75B" x="570.21605" y="200.61728" width="7.71605" height="12.34568"></rect>
                <polygon id="Path" fill="#47B75B" points="570.216 180.556 570.216 183.642 573.302 183.642 573.302 189.815 570.216 189.815 570.216 192.901 577.932 192.901 577.932 180.556"></polygon>
                <rect id="Rectangle" fill="#47B75B" x="570.21605" y="240.74074" width="7.71605" height="12.34568"></rect>
                <polygon id="Path" fill="#47B75B" points="570.216 220.679 570.216 223.765 573.302 223.765 573.302 229.938 570.216 229.938 570.216 233.025 577.932 233.025 577.932 220.679"></polygon>
                <rect id="Rectangle" fill="#47B75B" x="570.21605" y="280.8642" width="7.71605" height="12.34568"></rect>
                <rect id="Rectangle" fill="#47B75B" x="584.10494" y="277.77778" width="7.71605" height="12.34568"></rect>
                <polygon id="Path" fill="#47B75B" points="570.216 260.802 570.216 263.889 573.302 263.889 573.302 270.062 570.216 270.062 570.216 273.148 577.932 273.148 577.932 260.802"></polygon>
                <polygon id="Path" fill="#47B75B" points="599.537 260.802 599.537 263.889 602.623 263.889 602.623 270.062 599.537 270.062 599.537 273.148 607.253 273.148 607.253 260.802"></polygon>
                <rect id="Rectangle" fill="#47B75B" x="678.24074" y="81.79012" width="7.71605" height="12.34568"></rect>
                <rect id="Rectangle" fill="#47B75B" x="678.24074" y="101.85185" width="7.71605" height="12.34568"></rect>
                <rect id="Rectangle" fill="#47B75B" x="678.24074" y="160.49383" width="7.71605" height="12.34568"></rect>
                <polygon id="Path" fill="#47B75B" points="678.241 120.37 678.241 123.457 681.327 123.457 681.327 129.63 678.241 129.63 678.241 132.716 685.957 132.716 685.957 120.37"></polygon>
                <polygon id="Path" fill="#47B75B" points="678.241 180.556 678.241 183.642 681.327 183.642 681.327 189.815 678.241 189.815 678.241 192.901 685.957 192.901 685.957 180.556"></polygon>
                <polygon id="Path" fill="#47B75B" points="678.241 200.617 678.241 203.704 681.327 203.704 681.327 209.877 678.241 209.877 678.241 212.963 685.957 212.963 685.957 200.617"></polygon>
                <polygon id="Path" fill="#47B75B" points="678.241 138.889 678.241 141.975 681.327 141.975 681.327 148.148 678.241 148.148 678.241 151.235 685.957 151.235 685.957 138.889"></polygon>
                <polygon id="Path" fill="#47B75B" points="678.241 260.802 678.241 263.889 681.327 263.889 681.327 270.062 678.241 270.062 678.241 273.148 685.957 273.148 685.957 260.802"></polygon>
                <rect id="Rectangle" fill="#47B75B" x="570.21605" y="320.98765" width="7.71605" height="12.34568"></rect>
                <rect id="Rectangle" fill="#47B75B" x="584.10494" y="297.83951" width="7.71605" height="12.34568"></rect>
                <rect id="Rectangle" fill="#47B75B" x="570.21605" y="373.45679" width="7.71605" height="12.34568"></rect>
                <rect id="Rectangle" fill="#47B75B" x="584.10494" y="336.41975" width="7.71605" height="12.34568"></rect>
                <polygon id="Path" fill="#47B75B" points="570.216 300.926 570.216 304.012 573.302 304.012 573.302 310.185 570.216 310.185 570.216 313.272 577.932 313.272 577.932 300.926"></polygon>
                <polygon id="Path" fill="#47B75B" points="570.216 395.062 570.216 398.148 573.302 398.148 573.302 404.321 570.216 404.321 570.216 407.407 577.932 407.407 577.932 395.062"></polygon>
                <rect id="Rectangle" fill="#47B75B" x="655.09259" y="63.2716" width="7.71605" height="12.34568"></rect>
                <rect id="Rectangle" fill="#47B75B" x="655.09259" y="160.49383" width="7.71605" height="12.34568"></rect>
                <rect id="Rectangle" fill="#47B75B" x="655.09259" y="359.5679" width="10.80247" height="1.54321"></rect>
                <polygon id="Path" fill="#47B75B" points="655.093 100.309 655.093 103.395 658.179 103.395 658.179 109.568 655.093 109.568 655.093 112.654 662.809 112.654 662.809 100.309"></polygon>
                <polygon id="Path" fill="#47B75B" points="655.093 120.37 655.093 123.457 658.179 123.457 658.179 129.63 655.093 129.63 655.093 132.716 662.809 132.716 662.809 120.37"></polygon>
                <polygon id="Path" fill="#47B75B" points="655.093 140.432 655.093 143.519 658.179 143.519 658.179 149.691 655.093 149.691 655.093 152.778 662.809 152.778 662.809 140.432"></polygon>
                <rect id="Rectangle" fill="#47B75B" x="655.09259" y="200.61728" width="7.71605" height="12.34568"></rect>
                <polygon id="Path" fill="#47B75B" points="655.093 180.556 655.093 183.642 658.179 183.642 658.179 189.815 655.093 189.815 655.093 192.901 662.809 192.901 662.809 180.556"></polygon>
                <rect id="Rectangle" fill="#47B75B" x="655.09259" y="240.74074" width="7.71605" height="12.34568"></rect>
                <polygon id="Path" fill="#47B75B" points="655.093 220.679 655.093 223.765 658.179 223.765 658.179 229.938 655.093 229.938 655.093 233.025 662.809 233.025 662.809 220.679"></polygon>
                <rect id="Rectangle" fill="#47B75B" x="655.09259" y="280.8642" width="7.71605" height="12.34568"></rect>
                <polygon id="Path" fill="#47B75B" points="655.093 260.802 655.093 263.889 658.179 263.889 658.179 270.062 655.093 270.062 655.093 273.148 662.809 273.148 662.809 260.802"></polygon>
                <rect id="Rectangle" fill="#47B75B" x="655.09259" y="320.98765" width="7.71605" height="12.34568"></rect>
                <rect id="Rectangle" fill="#47B75B" x="655.09259" y="373.45679" width="7.71605" height="12.34568"></rect>
                <polygon id="Path" fill="#47B75B" points="655.093 300.926 655.093 304.012 658.179 304.012 658.179 310.185 655.093 310.185 655.093 313.272 662.809 313.272 662.809 300.926"></polygon>
                <polygon id="Path" fill="#47B75B" points="655.093 395.062 655.093 398.148 658.179 398.148 658.179 404.321 655.093 404.321 655.093 407.407 662.809 407.407 662.809 395.062"></polygon>
                <rect id="Rectangle" fill="#47B75B" x="692.12963" y="63.2716" width="7.71605" height="12.34568"></rect>
                <rect id="Rectangle" fill="#47B75B" x="692.12963" y="160.49383" width="7.71605" height="12.34568"></rect>
                <rect id="Rectangle" fill="#47B75B" x="692.12963" y="359.5679" width="10.80247" height="1.54321"></rect>
                <polygon id="Path" fill="#47B75B" points="692.13 100.309 692.13 103.395 695.216 103.395 695.216 109.568 692.13 109.568 692.13 112.654 699.846 112.654 699.846 100.309"></polygon>
                <polygon id="Path" fill="#47B75B" points="692.13 120.37 692.13 123.457 695.216 123.457 695.216 129.63 692.13 129.63 692.13 132.716 699.846 132.716 699.846 120.37"></polygon>
                <polygon id="Path" fill="#47B75B" points="692.13 140.432 692.13 143.519 695.216 143.519 695.216 149.691 692.13 149.691 692.13 152.778 699.846 152.778 699.846 140.432"></polygon>
                <rect id="Rectangle" fill="#47B75B" x="692.12963" y="200.61728" width="7.71605" height="12.34568"></rect>
                <polygon id="Path" fill="#47B75B" points="692.13 180.556 692.13 183.642 695.216 183.642 695.216 189.815 692.13 189.815 692.13 192.901 699.846 192.901 699.846 180.556"></polygon>
                <rect id="Rectangle" fill="#47B75B" x="692.12963" y="240.74074" width="7.71605" height="12.34568"></rect>
                <polygon id="Path" fill="#47B75B" points="692.13 220.679 692.13 223.765 695.216 223.765 695.216 229.938 692.13 229.938 692.13 233.025 699.846 233.025 699.846 220.679"></polygon>
                <rect id="Rectangle" fill="#47B75B" x="692.12963" y="280.8642" width="7.71605" height="12.34568"></rect>
                <polygon id="Path" fill="#47B75B" points="692.13 260.802 692.13 263.889 695.216 263.889 695.216 270.062 692.13 270.062 692.13 273.148 699.846 273.148 699.846 260.802"></polygon>
                <rect id="Rectangle" fill="#47B75B" x="692.12963" y="320.98765" width="7.71605" height="12.34568"></rect>
                <rect id="Rectangle" fill="#47B75B" x="692.12963" y="373.45679" width="7.71605" height="12.34568"></rect>
                <polygon id="Path" fill="#47B75B" points="692.13 300.926 692.13 304.012 695.216 304.012 695.216 310.185 692.13 310.185 692.13 313.272 699.846 313.272 699.846 300.926"></polygon>
                <polygon id="Path" fill="#47B75B" points="692.13 395.062 692.13 398.148 695.216 398.148 695.216 404.321 692.13 404.321 692.13 407.407 699.846 407.407 699.846 395.062"></polygon>
                <polygon id="Path" fill="#47B75B" points="584.105 373.457 584.105 376.543 587.191 376.543 587.191 382.716 584.105 382.716 584.105 385.802 591.821 385.802 591.821 373.457"></polygon>
                <polygon id="Path" fill="#47B75B" points="584.105 393.519 584.105 396.605 587.191 396.605 587.191 402.778 584.105 402.778 584.105 405.864 591.821 405.864 591.821 393.519"></polygon>
                <polygon id="Path" fill="#47B75B" points="543.981 160.494 543.981 163.58 547.068 163.58 547.068 169.753 543.981 169.753 543.981 172.84 551.698 172.84 551.698 160.494"></polygon>
                <polygon id="Path" fill="#47B75B" points="543.981 239.198 543.981 242.284 547.068 242.284 547.068 248.457 543.981 248.457 543.981 251.543 551.698 251.543 551.698 239.198"></polygon>
                <polygon id="Path" fill="#47B75B" points="543.981 259.259 543.981 262.346 547.068 262.346 547.068 268.519 543.981 268.519 543.981 271.605 551.698 271.605 551.698 259.259"></polygon>
                <polygon id="Path" fill="#47B75B" points="543.981 299.383 543.981 302.469 547.068 302.469 547.068 308.642 543.981 308.642 543.981 311.728 551.698 311.728 551.698 299.383"></polygon>
                <polygon id="Path" fill="#47B75B" points="543.981 356.481 543.981 359.568 547.068 359.568 547.068 365.741 543.981 365.741 543.981 368.827 551.698 368.827 551.698 356.481"></polygon>
                <polygon id="Path" fill="#47B75B" points="543.981 373.457 543.981 376.543 547.068 376.543 547.068 382.716 543.981 382.716 543.981 385.802 551.698 385.802 551.698 373.457"></polygon>
                <rect id="Rectangle" fill="#47B75B" x="624.2284" y="66.35802" width="7.71605" height="12.34568"></rect>
                <rect id="Rectangle" fill="#47B75B" x="624.2284" y="86.41975" width="7.71605" height="12.34568"></rect>
                <rect id="Rectangle" fill="#47B75B" x="621.14198" y="108.02469" width="10.80247" height="1.54321"></rect>
                <rect id="Rectangle" fill="#47B75B" x="621.14198" y="206.79012" width="10.80247" height="1.54321"></rect>
                <rect id="Rectangle" fill="#47B75B" x="621.14198" y="223.76543" width="10.80247" height="1.54321"></rect>
                <polygon id="Path" fill="#E02020" points="624.228 121.914 624.228 125 627.315 125 627.315 131.173 624.228 131.173 624.228 134.259 631.944 134.259 631.944 121.914"></polygon>
                <polygon id="Path" fill="#E02020" points="624.228 160.494 624.228 163.58 627.315 163.58 627.315 169.753 624.228 169.753 624.228 172.84 631.944 172.84 631.944 160.494"></polygon>
                <polygon id="Path" fill="#47B75B" points="624.228 239.198 624.228 242.284 627.315 242.284 627.315 248.457 624.228 248.457 624.228 251.543 631.944 251.543 631.944 239.198"></polygon>
                <rect id="Rectangle" fill="#47B75B" x="712.19136" y="200.61728" width="7.71605" height="12.34568"></rect>
                <rect id="Rectangle" fill="#47B75B" x="712.19136" y="220.67901" width="7.71605" height="12.34568"></rect>
                <rect id="Rectangle" fill="#47B75B" x="709.10494" y="242.28395" width="10.80247" height="1.54321"></rect>
                <rect id="Rectangle" fill="#47B75B" x="709.10494" y="341.04938" width="10.80247" height="1.54321"></rect>
                <rect id="Rectangle" fill="#47B75B" x="709.10494" y="358.02469" width="10.80247" height="1.54321"></rect>
                <polygon id="Path" fill="#47B75B" points="712.191 256.173 712.191 259.259 715.278 259.259 715.278 265.432 712.191 265.432 712.191 268.519 719.907 268.519 719.907 256.173"></polygon>
                <polygon id="Path" fill="#47B75B" points="712.191 294.753 712.191 297.84 715.278 297.84 715.278 304.012 712.191 304.012 712.191 307.099 719.907 307.099 719.907 294.753"></polygon>
                <polygon id="Path" fill="#47B75B" points="712.191 373.457 712.191 376.543 715.278 376.543 715.278 382.716 712.191 382.716 712.191 385.802 719.907 385.802 719.907 373.457"></polygon>
            </g>
            <path d="M470.79186,477.13609 C485.16781,492.56251 485.91086,515.23609 485.91086,515.23609 C485.91086,515.23609 463.34586,512.89846 448.96995,497.47209 C434.59404,482.04572 433.85095,459.37209 433.85095,459.37209 C433.85095,459.37209 456.4159,461.70967 470.79186,477.13609 Z" id="Path" fill="#47B75B" fill-rule="nonzero"></path>
            <path d="M516.04888,501.215 C500.62246,515.591 477.94888,516.334 477.94888,516.334 C477.94888,516.334 480.28651,493.76905 495.71288,479.39309 C511.13925,465.01713 533.81288,464.27409 533.81288,464.27409 C533.81288,464.27409 531.47535,486.839 516.04888,501.215 Z" id="Path" fill="#47B75B" fill-rule="nonzero"></path>
            <path d="M512.21492,547 L455.47578,547 C453.254874,547 451.228731,545.732506 450.25716,543.73539 L437.90371,518.34219 C437.028729,516.543619 437.141567,514.421237 438.202322,512.725581 C439.263077,511.029925 441.122237,510 443.12235,510 L524.56835,510 C526.568459,510 528.427613,511.029934 529.488363,512.725589 C530.549114,514.421245 530.66195,516.543622 529.78697,518.34219 L517.43352,543.73539 C516.461953,545.732499 514.435818,547 512.21492,547 Z" id="Path" fill="#3F3D56" fill-rule="nonzero"></path>
            <circle id="Oval" fill="#FFB8B8" fill-rule="nonzero" cx="767.02733" cy="190.06979" r="47.24351"></circle>
            <path d="M731.76585,213.69155 C731.76585,213.69155 740.66679,280.79106 726.97305,288.32255 C713.27931,295.85404 808.451,296.53882 808.451,296.53882 C808.451,296.53882 787.22566,238.34031 796.81127,220.53837 L731.76585,213.69155 Z" id="Path" fill="#FFB8B8" fill-rule="nonzero"></path>
            <path d="M877.94611,296.87826 L870.03111,332.91993 L853.2952,409.17274 L852.79407,413.34874 L847.01835,461.69332 L843.17649,493.80957 L840.60024,515.38317 C824.93724,523.43309 813.58508,528.99033 813.58508,528.99033 C813.58508,528.99033 812.60854,524.09484 811.03452,517.83092 C800.04215,521.12671 779.70209,526.59399 762.46505,527.68613 C768.74183,534.68246 771.62644,541.25475 767.71388,546.1053 C755.90558,560.72751 707.1562,530.0953 690.1055,518.67253 C689.708537,521.407491 689.558022,524.17258 689.65577,526.93447 L676.60754,516.89935 L677.89888,493.80957 L680.07681,454.74197 L682.81367,405.74846 C681.950672,403.65062 681.22739,401.497991 680.64856,399.30467 C676.65256,385.0936 671.802,356.7164 668.08217,332.91993 C665.08836,313.76839 662.83977,297.58499 662.36436,294.14144 C662.30009,293.69172 662.26798,293.46044 662.26798,293.46044 L734.49898,261.54331 C739.63222,273.44799 763.60216,277.02646 763.60216,277.02646 C783.46038,275.65803 799.02702,265.18605 799.02702,265.18605 L877.94611,296.87826 Z" id="Path" fill="#D0CDE1" fill-rule="nonzero"></path>
            <path d="M819.06523,515.29965 C819.06523,515.29965 816.00714,516.34685 811.03456,517.83092 C800.04219,521.12671 779.70213,526.59399 762.46509,527.68613 C747.62439,528.63699 735.08372,526.34986 732.79016,516.66808 C731.80716,512.50495 733.20134,509.0807 736.24016,506.26675 C745.3116,497.85702 769.00529,494.84391 787.79706,493.80957 C793.10373,493.52046 798.01206,493.38557 802.09806,493.33416 C809.03655,493.24416 813.58513,493.38557 813.58513,493.38557 L813.69434,493.80957 L819.06523,515.29965 Z" id="Path" fill="#FFB8B8" fill-rule="nonzero"></path>
            <path d="M727.72511,145.38179 L718.89173,141.84539 C718.89173,141.84539 737.36148,121.51123 763.05873,123.27949 L755.83122,115.32257 C755.83122,115.32257 773.49798,108.24989 789.55866,126.81578 C798.00145,136.57544 807.76984,148.04747 813.85941,160.97054 L823.31935,160.97054 L819.37113,169.66409 L833.18993,178.35764 L819.00635,176.79609 C819.851525,181.556777 819.981255,186.416965 819.39125,191.21596 C818.782796,196.016424 816.333087,200.392722 812.55913,203.42124 L812.55913,203.42124 C812.55913,203.42124 801.60413,180.74545 801.60413,177.20905 L801.60413,186.05005 C801.60413,186.05005 792.77075,178.09324 792.77075,172.78871 L787.95259,178.97737 L785.54351,169.25229 L755.8313,178.97737 L760.64945,171.02055 L742.1797,173.67282 L749.40721,163.94773 C749.40721,163.94773 728.52838,175.44094 727.72521,185.16603 C726.92228,194.89097 720.81095,204.10603 720.81095,204.10603 C720.81095,204.10603 704.43714,158.64313 727.72511,145.38179 Z" id="Path" fill="#2F2E41" fill-rule="nonzero"></path>
            <path d="M929.29742,462.57348 C924.48542,467.7902 912.56151,475.64739 898.10631,484.15348 C892.72897,487.31438 887.00469,490.57163 881.16481,493.80958 C867.22999,501.53831 852.63981,509.19635 840.60028,515.38318 C824.93728,523.4331 813.58512,528.99034 813.58512,528.99034 C813.58512,528.99034 812.60858,524.09485 811.03456,517.83093 C808.92733,509.44693 805.75361,498.60869 802.44496,493.80958 C802.32932,493.64253 802.21368,493.48835 802.09805,493.33417 C801.13437,492.06852 800.16426,491.32972 799.20705,491.32972 L847.01835,461.69332 L867.67968,448.8828 L852.794,413.34869 L834.12435,368.77526 L845.39301,332.91993 L856.71947,296.87826 L877.94612,296.87826 C877.94612,296.87826 884.97457,312.22006 893.96248,333.61379 C895.30523,336.8132 896.69291,340.14753 898.10632,343.59108 C916.5961,388.56282 939.64735,451.36266 929.29742,462.57348 Z" id="Path" fill="#D0CDE1" fill-rule="nonzero"></path>
            <path d="M767.71392,546.1053 C755.90562,560.72751 707.15624,530.0953 690.10554,518.67253 C686.39214,516.18624 684.1821,514.61222 684.1821,514.61222 L699.78089,493.80957 L704.72136,487.22442 C704.72136,487.22442 709.14144,489.56942 715.67518,493.38557 C715.91289,493.52689 716.15059,493.66825 716.39473,493.80957 C722.02906,497.11822 729.10248,501.44192 736.24013,506.26675 C746.08895,512.92899 756.04698,520.52923 762.46513,527.68613 C768.74187,534.68246 771.62648,541.25475 767.71392,546.1053 Z" id="Path" fill="#FFB8B8" fill-rule="nonzero"></path>
            <path d="M715.67518,493.38557 C713.93167,493.378867 712.190758,493.520714 710.47133,493.80957 C695.70133,496.34727 691.34547,509.71673 690.10554,518.67257 C689.708577,521.407531 689.558062,524.17262 689.65581,526.93451 L676.60758,516.89939 L671.85345,513.24383 C660.41132,509.25418 650.21558,502.16794 641.37545,493.80961 C633.706429,486.430347 626.827158,478.272097 620.84906,469.467 C614.894655,460.78858 609.586514,451.684027 604.96758,442.227 C602.358479,436.884323 602.257271,430.658753 604.69133,425.23409 L620.84906,389.22458 L644.46565,336.59476 C644.63909,335.342 644.829677,334.11706 645.03741,332.91994 C649.72092,306.06539 662.26802,294.14145 662.26802,294.14145 L671.85345,294.14145 L678.26513,332.91994 L686.23153,381.09753 L680.6486,399.30468 L667.74816,441.35323 L680.07685,454.742 L715.67518,493.38557 Z" id="Path" fill="#D0CDE1" fill-rule="nonzero"></path>
            <path d="M726.52386,381.136 L734.71828,390.69622 C737.76273,390.11576 740.942,389.43363 744.21653,388.66758 L741.86294,381.136 L747.61772,387.84992 C782.30854,379.31763 825.30755,362.7291 825.30755,362.7291 C825.30755,362.7291 778.88569,366.13295 744.22461,358.56047 C728.88876,355.21001 713.11011,362.81229 706.81691,377.19316 C703.15905,385.55189 703.73352,392.7937 716.70684,392.7937 C721.090442,392.718847 725.461836,392.307672 729.78251,391.5638 L726.52386,381.136 Z" id="Path" fill="#47B75B" fill-rule="nonzero"></path>
            <path d="M913.332478,538.26736 L913.332478,542.16706 C913.332478,543.237333 913.136339,544.298546 912.74781,545.29581 C912.575259,545.740292 912.366852,546.170008 912.12465,546.58071 C910.566982,549.195299 907.7477,550.796549 904.70428,550.795211 L617.81665,550.795211 C614.773239,550.796555 611.953966,549.195301 610.39632,546.58071 C610.154102,546.170016 609.945695,545.740299 609.77316,545.29581 C609.384631,544.298546 609.188492,543.237333 609.188492,542.16706 L609.188492,538.26736 C609.188492,535.978848 610.096737,533.783892 611.71496,532.16567 C613.333182,530.547447 615.528138,529.63861 617.81665,529.63922 L634.3534,529.63922 L634.3534,527.82106 C634.353243,527.725595 634.391097,527.633995 634.458601,527.566491 C634.526105,527.498987 634.617705,527.461289 634.71317,527.461289 L643.34135,527.461289 C643.436815,527.461289 643.528415,527.498987 643.595919,527.566491 C643.663423,527.633995 643.701277,527.725595 643.70112,527.82106 L643.70112,529.63922 L649.09128,529.63922 L649.09128,527.82106 C649.091123,527.725595 649.128977,527.633995 649.196481,527.566491 C649.263985,527.498987 649.355585,527.461289 649.45105,527.461289 L658.07924,527.461289 C658.174705,527.461289 658.266305,527.498987 658.333809,527.566491 C658.401313,527.633995 658.439167,527.725595 658.43901,527.82106 L658.43901,529.63922 L663.8356,529.63922 L663.8356,527.82106 C663.835443,527.725595 663.873297,527.633995 663.940801,527.566491 C664.008305,527.498987 664.099905,527.461289 664.19537,527.461289 L672.82351,527.461289 C672.918976,527.461289 673.010577,527.498987 673.078083,527.56649 C673.145588,527.633994 673.183444,527.725594 673.18329,527.82106 L673.18329,529.63922 L678.57348,529.63922 L678.57348,527.82106 C678.573323,527.725595 678.611177,527.633995 678.678681,527.566491 C678.746185,527.498987 678.837785,527.461289 678.93325,527.461289 L687.5614,527.461289 C687.656865,527.461289 687.748465,527.498987 687.815969,527.566491 C687.883473,527.633995 687.921327,527.725595 687.92117,527.82106 L687.92117,529.63922 L693.31137,529.63922 L693.31137,527.82106 C693.311213,527.725595 693.349067,527.633995 693.416571,527.566491 C693.484075,527.498987 693.575675,527.461289 693.67114,527.461289 L702.29935,527.461289 C702.394815,527.461289 702.486415,527.498987 702.553919,527.566491 C702.621423,527.633995 702.659277,527.725595 702.65912,527.82106 L702.65912,529.63922 L708.05574,529.63922 L708.05574,527.82106 C708.055586,527.725594 708.093442,527.633994 708.160947,527.56649 C708.228453,527.498987 708.320054,527.461289 708.41552,527.461289 L717.04366,527.461289 C717.139126,527.461289 717.230727,527.498987 717.298233,527.56649 C717.365738,527.633994 717.403594,527.725594 717.40344,527.82106 L717.40344,529.63922 L722.79363,529.63922 L722.79363,527.82106 C722.793473,527.725595 722.831327,527.633995 722.898831,527.566491 C722.966335,527.498987 723.057935,527.461289 723.1534,527.461289 L790.73952,527.461289 C790.834986,527.461289 790.926587,527.498987 790.994093,527.56649 C791.061598,527.633994 791.099454,527.725594 791.0993,527.82106 L791.0993,529.63922 L796.49588,529.63922 L796.49588,527.82106 C796.495723,527.725595 796.533577,527.633995 796.601081,527.566491 C796.668585,527.498987 796.760185,527.461289 796.85565,527.461289 L805.48384,527.461289 C805.681728,527.463225 805.841675,527.623172 805.84361,527.82106 L805.84361,529.63922 L811.23377,529.63922 L811.23377,527.82106 C811.233613,527.725595 811.271467,527.633995 811.338971,527.566491 C811.406475,527.498987 811.498075,527.461289 811.59354,527.461289 L820.22169,527.461289 C820.317161,527.461289 820.40877,527.498975 820.476282,527.56648 C820.543794,527.633984 820.581654,527.725589 820.5815,527.82106 L820.5815,529.63922 L825.97165,529.63922 L825.97165,527.82106 C825.971496,527.725594 826.009352,527.633994 826.076857,527.56649 C826.144363,527.498987 826.235964,527.461289 826.33143,527.461289 L834.95957,527.461289 C835.055036,527.461289 835.146637,527.498987 835.214143,527.56649 C835.281648,527.633994 835.319504,527.725594 835.31935,527.82106 L835.31935,529.63922 L840.71597,529.63922 L840.71597,527.82106 C840.715813,527.725595 840.753667,527.633995 840.821171,527.566491 C840.888675,527.498987 840.980275,527.461289 841.07574,527.461289 L849.70389,527.461289 C849.90051,527.463771 850.058295,527.624428 850.05723,527.82106 L850.05723,529.63922 L855.45386,529.63922 L855.45386,527.82106 C855.453703,527.725595 855.491557,527.633995 855.559061,527.566491 C855.626565,527.498987 855.718165,527.461289 855.81363,527.461289 L864.44178,527.461289 C864.537245,527.461289 864.628845,527.498987 864.696349,527.566491 C864.763853,527.633995 864.801707,527.725595 864.80155,527.82106 L864.80155,529.63922 L870.19174,529.63922 L870.19174,527.82106 C870.191586,527.725594 870.229442,527.633994 870.296947,527.56649 C870.364453,527.498987 870.456054,527.461289 870.55152,527.461289 L879.17966,527.461289 C879.275125,527.461289 879.366725,527.498987 879.434229,527.566491 C879.501733,527.633995 879.539587,527.725595 879.53943,527.82106 L879.53943,529.63922 L904.70433,529.63922 C906.992839,529.638615 909.187791,530.547455 910.806011,532.165676 C912.424231,533.783898 913.332478,535.978851 913.332478,538.26736 Z" id="Path" fill="#3F3D56" fill-rule="nonzero"></path>
            <path d="M890.23256,374.0373 L783.30073,374.0373 L783.30073,371.8333 L734.81373,371.8333 L734.81373,374.0373 L627.44106,374.0373 C625.522713,374.0373 623.682936,374.799361 622.326461,376.155838 C620.969986,377.512315 620.20793,379.352093 620.20793,381.27044 L620.20793,527.693 C620.20793,531.687755 623.446305,534.92616 627.44106,534.92616 L890.23256,534.92616 C894.227315,534.92616 897.46569,531.687755 897.46569,527.693 L897.46569,381.27044 C897.46569,379.352093 896.703634,377.512315 895.347159,376.155838 C893.990684,374.799361 892.150907,374.0373 890.23256,374.0373 L890.23256,374.0373 Z" id="Path" fill="#3F3D56" fill-rule="nonzero"></path>
            <circle id="Oval" stroke="#D0CDE1" stroke-width="2" cx="759.04723" cy="425.15699" r="16.06134"></circle>
            <circle id="Oval" fill="#D0CDE1" fill-rule="nonzero" cx="753.9076" cy="430.93907" r="16.06134"></circle>
            <circle id="Oval" fill="#2F2E41" fill-rule="nonzero" cx="282.31137" cy="279.70501" r="23.38258"></circle>
            <path d="M288.82582,256.96607 C297.057797,256.967171 304.682924,261.296309 308.902551,268.364561 C313.122179,275.432813 313.314771,284.199049 309.40964,291.4458 C314.937993,284.528882 316.083772,275.082121 312.369268,267.044155 C308.654764,259.006188 300.717617,253.756829 291.867058,253.48469 C283.0165,253.212552 274.771835,257.964351 270.57051,265.75892 C274.998293,260.19991 281.718933,256.962848 288.82582,256.96607 Z" id="Path" fill="#2F2E41" fill-rule="nonzero"></path>
            <circle id="Oval" fill="#2F2E41" fill-rule="nonzero" cx="238.61766" cy="210.96916" r="68.68632"></circle>
            <path d="M184.71006,168.35257 C209.311413,140.685097 251.416575,137.499515 279.90058,161.15067 C279.33892,160.61676 278.78319,160.07852 278.19958,159.55967 C259.859572,143.255703 234.214644,137.974494 210.92499,145.705423 C187.635337,153.436352 170.239211,173.004907 165.289565,197.039803 C160.339919,221.074699 168.588722,245.924463 186.92873,262.22843 C187.51236,262.74726 188.11199,263.23612 188.70802,263.73137 C161.883179,238.213869 160.114781,196.025431 184.71006,168.35257 L184.71006,168.35257 Z" id="Path" fill="#2F2E41" fill-rule="nonzero"></path>
            <circle id="Oval" fill="#A0616A" fill-rule="nonzero" cx="238.03557" cy="234.83474" r="44.23864"></circle>
            <path d="M206.60285,248.80484 C206.60285,248.80484 212.42372,302.35684 203.11032,308.17776 C193.79692,313.99868 256.66237,322.14786 256.66237,322.14786 C256.66237,322.14786 247.34897,263.93911 270.63247,248.80484 L206.60285,248.80484 Z" id="Path" fill="#A0616A" fill-rule="nonzero"></path>
            <path d="M262.48324,298.86436 C262.48324,298.86436 279.81824,290.76936 254.85224,293.65267 C229.88624,296.53598 208.34639,285.47635 208.34639,285.47635 C208.34639,285.47635 200.78192,277.90921 199.61775,286.05844 C198.45358,294.20767 203.11027,309.34193 177.49843,311.67028 C151.88659,313.99863 128.60308,307.01358 119.28969,324.47621 C109.9763,341.93884 114.63299,417.61021 114.63299,417.61021 C114.63299,417.61021 132.09561,480.47566 146.06571,489.78905 C160.03581,499.10244 282.27416,486.29653 282.27416,486.29653 L317.19941,423.43109 L317.19941,350.08809 C317.19941,350.08809 312.54271,324.47625 279.94581,331.46129 C279.94581,331.46129 258.99067,326.8046 260.15481,316.32702 C261.31895,305.84944 262.48324,298.86436 262.48324,298.86436 Z" id="Path" fill="#D0CDE1" fill-rule="nonzero"></path>
            <path d="M150.68584,534.27771 C151.40538,531.14254 151.88722,529.36936 151.88722,529.36936 L151.51463,526.81884 L147.67916,500.77378 L146.0666,489.78778 C160.03353,483.96716 163.52848,457.1897 163.52848,457.1897 L164.0553,456.8749 L166.43881,455.44863 L166.43881,455.44224 L174.99635,450.309 L175.16979,450.20623 L178.62619,452.50623 L185.64819,457.18971 C204.262598,471.079488 227.865955,476.487666 250.67093,472.08821 C255.92057,471.188769 261.053425,469.70623 265.97418,467.66812 L282.90924,462.02097 L283.43606,461.84749 L283.95645,461.92459 L293.88879,463.42794 L294.06866,463.46006 L294.89102,463.58213 L292.59102,479.48285 L289.25669,502.59185 C298.06474,507.25607 305.89625,516.01914 312.74479,526.81879 C314.26097,529.20869 315.730043,531.69498 317.15201,534.27766 C319.00228,537.61843 320.76901,541.09408 322.45225,544.6533 C322.65784,545.0773 322.857,545.50778 323.05616,545.93821 C323.70504,547.33232 324.3475,548.7393 324.9707,550.1527 L147.60207,550.1527 C147.83334,548.73287 148.06462,547.3773 148.2895,546.0731 C148.301156,546.028782 148.309736,545.983711 148.31518,545.93821 C148.39871,545.50135 148.4758,545.0773 148.54646,544.6533 C149.33027,540.41314 150.08835,536.87325 150.68584,534.27771 Z" id="Path" fill="#2F2E41" fill-rule="nonzero"></path>
            <path d="M143.73741,310.50611 C143.73741,310.50611 156.54335,333.7896 151.88663,362.894 C147.22991,391.9984 165.85673,464.17721 165.85673,464.17721 L179.82683,460.68468 C179.82683,460.68468 170.51343,400.14759 172.84178,386.17749 C175.17013,372.20739 175.17013,317.49118 163.52838,310.50613 C151.88663,303.52108 143.73741,310.50611 143.73741,310.50611 Z" id="Path" fill="#2F2E41" fill-rule="nonzero"></path>
            <path d="M279.127,334.70233 L284.02048,463.5951 L293.33388,469.41597 C293.33388,469.41597 306.72188,327.96873 299.73688,327.96873 L285.52413,327.96873 C283.768338,327.96873 282.089515,328.689453 280.880193,329.962382 C279.670871,331.23531 279.037077,332.948842 279.127,334.70233 L279.127,334.70233 Z" id="Path" fill="#2F2E41" fill-rule="nonzero"></path>
            <circle id="Oval" fill="#47B75B" fill-rule="nonzero" cx="172.25969" cy="455.44588" r="5.82087"></circle>
            <circle id="Oval" fill="#47B75B" fill-rule="nonzero" cx="288.67718" cy="461.26675" r="5.82087"></circle>
            <polygon id="Path" fill="#2F2E41" fill-rule="nonzero" points="200.2 179.536 200.2 223.775 210.445 223.775 223.483 209.805 221.737 223.775 267.024 223.775 264.23 209.805 269.818 223.775 277.035 223.775 277.035 179.536"></polygon>
            <ellipse id="Oval" fill="#A0616A" fill-rule="nonzero" cx="193.21484" cy="225.52134" rx="3.49252" ry="6.40296"></ellipse>
            <ellipse id="Oval" fill="#A0616A" fill-rule="nonzero" cx="282.8563" cy="225.52134" rx="3.49252" ry="6.40296"></ellipse>
            <path d="M306.72189,460.68466 C306.72189,460.68466 253.75189,450.78918 250.25941,468.2518 C246.76693,485.71442 309.05024,478.14729 309.05024,478.14729 L306.72189,460.68466 Z" id="Path" fill="#A0616A" fill-rule="nonzero"></path>
            <path d="M305.55771,340.77465 C305.55771,340.77465 432.45277,442.05787 409.16927,466.50554 C385.88577,490.95321 297.40849,483.96816 297.40849,483.96816 L303.22936,454.86379 L354.45306,449.04291 L328.84121,423.43107 L305.55771,425.75942 L305.55771,340.77465 Z" id="Path" fill="#D0CDE1" fill-rule="nonzero"></path>
            <path d="M118.12556,509.58 L134.42401,522.38592 C134.42401,522.38592 146.06576,558.47534 163.52838,547.99777 C180.991,537.5202 147.22993,500.2666 147.22993,500.2666 L127.43893,493.28155 L118.12556,509.58 Z" id="Path" fill="#A0616A" fill-rule="nonzero"></path>
            <path d="M134.42401,322.14786 L118.16951,327.03937 C118.16951,327.03937 5.2006,410.62514 0.5439,433.90864 C-4.1128,457.19214 22.66322,469.99806 22.66322,469.99806 L123.94643,517.72923 L134.42401,489.78903 L86.69284,465.34136 C86.69284,465.34136 90.18536,458.35631 76.21527,457.19214 C62.24518,456.02797 59.91682,440.89369 59.91682,440.89369 C59.91682,440.89369 87.85701,397.81922 102.99129,407.13262 C118.12557,416.44602 122.78229,423.43107 122.78229,423.43107 L134.42401,322.14786 Z" id="Path" fill="#D0CDE1" fill-rule="nonzero"></path>
            <path d="M366.261138,538.26736 L366.261138,542.16706 C366.261138,543.237332 366.065023,544.298546 365.6765,545.29581 C365.50396,545.740304 365.295539,546.170021 365.0533,546.58071 C363.495661,549.195309 360.676383,550.796565 357.63297,550.795211 L70.74535,550.795211 C67.7019393,550.796555 64.8826663,549.195301 63.32502,546.58071 C63.0827969,546.170013 62.8743765,545.740297 62.70182,545.29581 C62.3133155,544.29854 62.1171823,543.23733 62.1171823,542.16706 L62.1171823,538.26736 C62.1171823,535.978847 63.0254322,533.783891 64.6436562,532.165669 C66.2618802,530.547447 68.456837,529.63861 70.74535,529.63922 L87.2821,529.63922 L87.2821,527.82106 C87.2819431,527.725595 87.3197969,527.633995 87.3873009,527.566491 C87.4548049,527.498987 87.546405,527.46129 87.64187,527.46129 L96.27002,527.46129 C96.365485,527.46129 96.4570851,527.498987 96.5245891,527.566491 C96.5920931,527.633995 96.6299469,527.725595 96.62979,527.82106 L96.62979,529.63922 L102.01998,529.63922 L102.01998,527.82106 C102.019826,527.725594 102.057682,527.633994 102.125187,527.56649 C102.192693,527.498987 102.284294,527.46129 102.37976,527.46129 L111.0079,527.46129 C111.103365,527.46129 111.194965,527.498987 111.262469,527.566491 C111.329973,527.633995 111.367827,527.725595 111.36767,527.82106 L111.36767,529.63922 L116.76435,529.63922 L116.76435,527.82106 C116.764193,527.725595 116.802047,527.633995 116.869551,527.566491 C116.937055,527.498987 117.028655,527.46129 117.12412,527.46129 L125.75227,527.46129 C125.847735,527.46129 125.939335,527.498987 126.006839,527.566491 C126.074343,527.633995 126.112197,527.725595 126.11204,527.82106 L126.11204,529.63922 L131.50224,529.63922 L131.50224,527.82106 C131.502083,527.725595 131.539937,527.633995 131.607441,527.566491 C131.674945,527.498987 131.766545,527.46129 131.86201,527.46129 L140.49016,527.46129 C140.585625,527.46129 140.677225,527.498987 140.744729,527.566491 C140.812233,527.633995 140.850087,527.725595 140.84993,527.82106 L140.84993,529.63922 L146.24012,529.63922 L146.24012,527.82106 C146.239963,527.725595 146.277817,527.633995 146.345321,527.566491 C146.412825,527.498987 146.504425,527.46129 146.59989,527.46129 L155.22804,527.46129 C155.323505,527.46129 155.415105,527.498987 155.482609,527.566491 C155.550113,527.633995 155.587967,527.725595 155.58781,527.82106 L155.58781,529.63922 L160.98435,529.63922 L160.98435,527.82106 C160.984193,527.725595 161.022047,527.633995 161.089551,527.566491 C161.157055,527.498987 161.248655,527.46129 161.34412,527.46129 L169.97235,527.46129 C170.067815,527.46129 170.159415,527.498987 170.226919,527.566491 C170.294423,527.633995 170.332277,527.725595 170.33212,527.82106 L170.33212,529.63922 L175.72232,529.63922 L175.72232,527.82106 C175.722163,527.725595 175.760017,527.633995 175.827521,527.566491 C175.895025,527.498987 175.986625,527.46129 176.08209,527.46129 L243.66821,527.46129 C243.763675,527.46129 243.855275,527.498987 243.922779,527.566491 C243.990283,527.633995 244.028137,527.725595 244.02798,527.82106 L244.02798,529.63922 L249.42457,529.63922 L249.42457,527.82106 C249.424413,527.725595 249.462267,527.633995 249.529771,527.566491 C249.597275,527.498987 249.688875,527.46129 249.78434,527.46129 L258.41249,527.46129 C258.610383,527.463214 258.770336,527.623167 258.77226,527.82106 L258.77226,529.63922 L264.16245,529.63922 L264.16245,527.82106 C264.162296,527.725594 264.200152,527.633994 264.267657,527.56649 C264.335163,527.498987 264.426764,527.46129 264.52223,527.46129 L273.15035,527.46129 C273.245815,527.46129 273.337415,527.498987 273.404919,527.566491 C273.472423,527.633995 273.510277,527.725595 273.51012,527.82106 L273.51012,529.63922 L278.90032,529.63922 L278.90032,527.82106 C278.900163,527.725595 278.938017,527.633995 279.005521,527.566491 C279.073025,527.498987 279.164625,527.46129 279.26009,527.46129 L287.88824,527.46129 C287.983705,527.46129 288.075305,527.498987 288.142809,527.566491 C288.210313,527.633995 288.248167,527.725595 288.24801,527.82106 L288.24801,529.63922 L293.64464,529.63922 L293.64464,527.82106 C293.644483,527.725595 293.682337,527.633995 293.749841,527.566491 C293.817345,527.498987 293.908945,527.46129 294.00441,527.46129 L302.63255,527.46129 C302.829171,527.463771 302.98696,527.624426 302.9859,527.82106 L302.9859,529.63922 L308.38252,529.63922 L308.38252,527.82106 C308.382363,527.725595 308.420217,527.633995 308.487721,527.566491 C308.555225,527.498987 308.646825,527.46129 308.74229,527.46129 L317.37044,527.46129 C317.465905,527.46129 317.557505,527.498987 317.625009,527.566491 C317.692513,527.633995 317.730367,527.725595 317.73021,527.82106 L317.73021,529.63922 L323.12041,529.63922 L323.12041,527.82106 C323.120253,527.725595 323.158107,527.633995 323.225611,527.566491 C323.293115,527.498987 323.384715,527.46129 323.48018,527.46129 L332.10835,527.46129 C332.203815,527.46129 332.295415,527.498987 332.362919,527.566491 C332.430423,527.633995 332.468277,527.725595 332.46812,527.82106 L332.46812,529.63922 L357.63301,529.63922 C359.921519,529.63861 362.116472,530.547448 363.73469,532.165672 C365.352907,533.783895 366.261138,535.978851 366.261138,538.26736 Z" id="Path" fill="#3F3D56" fill-rule="nonzero"></path>
            <path d="M343.1601,374.03428 L236.22827,374.03428 L236.22827,371.83028 L187.74122,371.83028 L187.74122,374.03428 L80.3686,374.03428 C76.3738526,374.03428 73.13547,377.272663 73.13547,381.26741 L73.13547,527.69 C73.13547,531.684755 76.3738455,534.92316 80.3686,534.92316 L343.1601,534.92316 C347.154855,534.92316 350.39323,531.684755 350.39323,527.69 L350.39323,381.26741 C350.39323,377.272663 347.154847,374.03428 343.1601,374.03428 Z" id="Path" fill="#3F3D56" fill-rule="nonzero"></path>
            <circle id="Oval" stroke="#D0CDE1" stroke-width="2" cx="211.97477" cy="425.15396" r="16.06134"></circle>
            <circle id="Oval" fill="#D0CDE1" fill-rule="nonzero" cx="206.83514" cy="430.93605" r="16.06134"></circle>
            <rect id="Rectangle" fill="#3F3D56" fill-rule="nonzero" x="11.84535" y="546" width="950" height="2"></rect>
        </g>
    </g>
</svg>